<svg width="418" height="449" viewBox="0 0 418 449" fill="none" xmlns="http://www.w3.org/2000/svg">
<path d="M417.978 0H0V448.362H417.978V0Z" fill="#E1F4F9"/>
<mask id="mask0_197_188" style="mask-type:luminance" maskUnits="userSpaceOnUse" x="0" y="0" width="418" height="449">
<path d="M417.978 0H0V448.362H417.978V0Z" fill="white"/>
</mask>
<g mask="url(#mask0_197_188)">
<path d="M454.879 364.312V368.621L439.434 368.74C433.698 368.784 428.067 368.888 422.387 368.249L384.359 363.977L376.477 363.326L365.679 362.799C360.302 362.539 354.961 362.535 349.544 362.799L325.161 363.985C326.523 364.703 328.387 365.155 330.096 365.055L347.748 364.037C354.794 363.629 361.891 363.462 369.068 363.937L377.715 364.508C386.784 365.107 397.522 366.936 406.627 368.708C425.98 372.474 436.343 369.787 454.879 369.838V372.33L406.053 375.604C400.939 375.948 395.869 375.041 390.823 374.67C387.852 373.328 384.892 372.749 381.758 371.831C370.024 368.397 358.569 366.249 346.211 366.636L320.266 367.451C305.446 367.914 291.271 368.101 276.427 367.479C262.308 366.888 248.814 367.107 234.838 368.197C233.738 368.281 232.544 368.812 231.305 369.531C233.38 370.525 235.184 370.925 237.482 371.236L254.7 373.568L291.347 378.787C308.075 381.171 324.361 382.628 341.264 381.806L378.926 379.973C385.713 379.641 392.133 380.568 398.394 383.012C402.457 384.597 407.093 384.465 411.681 384.529L454.875 385.124V391.74C444.687 391.169 440.238 393.03 429.895 392.052C425.294 391.617 420.674 391.465 416.01 391.545L394.929 391.904C393.77 391.924 392.942 391.585 392.332 390.718C386.677 391.07 380.662 390.902 374.744 392.443C383.036 393.23 390.962 393.238 399.023 392.575C406.647 391.944 413.884 392.859 421.519 392.879L454.879 392.954V425.558C451.43 426.145 447.889 425.809 444.313 428.313C448.359 428.968 451.538 428.912 454.879 428.916V450.75L446.208 451.181L437.598 451.581C436.53 451.629 434.248 450.523 433.208 450.251L421.511 451.593L424.649 452.319C421.941 452.771 418.938 453.493 416.034 453.669L404.317 454.38C405.798 453.949 408.025 452.495 409.375 452.331L436.506 449.057C430.548 448.606 424.948 449.616 419.065 450.187L403.763 451.669L391.428 452.862L361.33 455.346C352.866 456.045 344.809 456.868 336.425 458.125C334.724 458.381 332.51 458.453 330.972 458.864C324.142 460.697 317.753 461.875 310.982 462.737C314.216 462.977 317.223 462.809 320.346 462.558L341.057 460.897L371.151 457.786L400.553 455.71L443.19 452.132C447.216 451.792 451.119 451.976 454.879 451.96V464.738H402.401L408.212 462.278C404.922 461.591 401.604 461.42 398.103 461.571L387.911 462.015C380.141 462.35 372.613 463.185 364.763 464.075C363.006 464.275 360.915 464.051 359.804 464.742H179.524C179.488 464.614 178.97 463.899 178.699 463.903L173.167 463.987L176.529 462.302L135.107 463.336L105.793 463.831C95.5648 464.003 85.544 464.327 75.2562 463.831C73.1453 462.973 70.3892 461.535 67.864 461.571L48.5352 461.871C50.1443 463.117 60.0496 462.114 59.7629 464.734H0.481904C0.187171 464.826 1.31031 464.171 1.64487 464.167L22.6585 464.035C20.2289 462.741 17.1502 462.973 14.0316 462.889L1.70861 462.554C1.26253 462.542 0.298701 461.827 0.342513 461.432C0.386324 461.036 1.24263 460.421 1.72456 460.413C26.9281 460.042 60.4639 459.387 84.5602 453.917C86.8623 453.394 89.268 451.984 90.7217 450.091C90.0685 446.949 85.8825 447.612 85.9064 444.353C85.9144 443.607 87.2606 442.249 88.0213 442.153C92.7211 441.554 97.0346 440.576 101.738 440.576L154.814 440.564C165.436 440.564 175.405 441.558 185.841 442.532C192.715 443.175 190.078 448.897 196.28 450.083C231.922 456.899 261.244 455.482 296.289 446.621C300.886 445.459 304.729 444.617 309.238 442.792C308.278 441.566 306.971 441.035 305.522 441.071L280.087 441.674C274.005 441.818 234.232 442.145 232.372 439.51C230.99 437.557 249.029 436.259 250.586 436.151C283.652 433.788 316.08 431.052 348.879 426.74C350.054 426.584 367.65 424.26 364.898 421.856C362.007 419.329 326.595 418.354 320.278 418.346C286.28 418.318 253.139 419.057 219.348 420.67C208.109 421.205 197.586 421.956 186.283 421.657C165.257 421.102 144.849 420.826 123.919 418.678L56.716 411.778C50.0805 411.095 44.0345 410.771 37.4947 411.323C31.4327 411.834 25.7094 411.614 19.6355 411.442L0.633254 410.911C0.521734 409.941 0.258857 408.104 0.824424 408.064C-3.18632 408.332 18.4725 408.24 15.9474 408.156L27.0516 408.523C35.1567 408.791 42.9233 407.349 51.14 408.152L91.0802 412.061C95.6605 412.508 99.9779 412.461 104.606 411.462C106.585 407.912 77.7535 406.742 75.4394 406.643L44.1859 405.277C39.7808 405.085 35.7263 405.261 31.2734 405.465C21.7225 405.9 10.4988 405.724 0.489877 405.181L0.505776 395.813C11.1599 395.67 20.9299 395.095 31.4248 393.637C32.5081 393.485 33.9101 392.319 34.7266 391.349C45.7392 393.461 56.9151 394.06 68.3818 394.072C71.9345 394.076 95.7441 394.58 93.5734 388.318C88.097 387.284 82.5767 386.901 77.0166 386.945C63.0686 387.049 49.5747 387.943 35.79 389.309L33.8942 390.315C30.8194 389.496 27.7446 389.436 24.5344 389.748L15.338 390.634C12.307 390.926 8.88972 392.435 6.3367 389.824C13.3187 390.786 18.7672 388.897 24.9208 387.5C31.831 385.931 39.0958 386.522 46.1494 386.066L65.8885 384.801C76.2998 384.134 86.2649 382.98 96.9151 380.58C95.4414 379.222 93.2389 378.923 91.2475 379.015L60.1731 380.488C56.5487 380.66 53.2031 380.891 49.8137 380.488L59.1097 379.657L96.2021 376.599C132.096 373.64 158.574 382.928 202.357 376.627C203.254 376.499 204.739 375.704 204.899 375.045C205.058 374.387 203.859 372.749 203.186 372.562L193.667 369.926C189.178 368.684 184.928 368.261 180.372 367.554C165.181 365.203 154.941 363.21 140.077 357.883C141.316 356.198 143.399 355.24 145.574 355.356C153.161 355.771 160.207 356.246 167.806 357.164C185.992 359.361 203.732 360.658 222.097 360.726L250.55 360.838C268.282 360.906 285.321 361.621 303.064 360.954C325.456 360.111 347.31 358.802 369.606 360.199L375.298 360.555C402.035 362.228 428.405 364.065 454.879 364.288V364.312ZM376.556 362.535C377.428 360.626 367.005 361.493 362.998 361.142C358.135 360.714 353.977 360.559 349.289 361.118L343.646 361.792L371.522 362.04L376.556 362.535ZM233.4 381.774L227.645 381.119L232.699 380.368C226.398 380.532 220.599 379.522 214.497 381.323C223.331 382.157 231.293 382.584 239.49 382.469L233.4 381.774ZM152.145 388.865C152.934 388.794 154.36 387.787 153.994 387.456C148.318 382.353 112.416 383.203 103.742 385.879C104.084 387.164 105.566 387.919 106.809 388.051C121.947 389.628 136.736 390.299 152.149 388.865H152.145ZM342.136 387.224C340.268 386.789 338.699 387.26 336.807 387.288L304.797 387.695L318.805 388.422C321.816 388.61 340.69 389.588 342.14 387.224H342.136ZM254.927 391.477C263.658 392.204 271.221 392.799 279.183 392.02C271.424 390.207 264.148 390.099 256.552 389.476C252.789 389.169 249.096 389.257 245.524 389.58L253.167 390.275L261.125 390.806L254.923 391.473L254.927 391.477ZM198.717 392.096C195.372 390.646 192.512 391.729 189.377 391.744L187.828 391.752C187.561 391.752 187.645 392.487 187.689 392.982C191.241 392.926 195.196 392.851 198.717 392.096ZM132.072 397.514C138.504 397.914 144.088 398.014 149.895 397.654L159.781 397.039L167.149 396.42L173.004 395.861C173.215 395.841 174.195 394.999 173.988 394.987C173.78 394.975 172.952 394.903 172.657 394.927L164.098 395.582L157.287 396.137L149.899 396.648L143.666 396.983L132.076 397.514H132.072ZM92.7809 399.168L120.936 398.309L114.742 396.492L92.0161 397.534C84.5124 397.878 77.3313 397.878 69.8475 397.507L38.7772 395.957C35.6347 395.801 27.6172 396.856 27.4618 397.403L27.1631 398.465C25.6496 397.83 23.9808 397.235 23.2997 399.076C37.1442 398.145 35.3718 397.291 49.8455 398.369C57.3333 398.928 64.622 399.267 72.05 399.239L92.7809 399.168ZM253.653 411.506L303.602 410.652C317.542 410.412 330.849 409.673 344.402 407.014C346.525 406.599 348.039 406.167 349.939 404.207C346.139 403.005 343.076 402.47 339.432 402.194L311.604 400.082C294.883 398.812 278.729 397.339 262.017 397.507C254.509 398.696 247.551 400.505 240.015 401.308C225.94 402.801 212.39 402.781 198.283 403.544L164.166 405.389C163.505 405.425 162.31 406.1 161.903 406.299C158.797 407.829 167.834 410.129 170.096 410.3L203.058 412.808C220.101 414.106 236.558 411.802 253.649 411.506H253.653ZM430.321 407.246C431.384 403.836 406.252 408.22 406.057 411.398C410.944 412.568 429.058 411.291 430.321 407.246ZM350.544 413.858C350.209 413.754 349.158 413.247 348.736 413.243L336.954 413.123L340.774 414.697L331.438 415.911C328.841 416.478 357.789 416.094 350.548 413.858H350.544ZM382.291 443L391.914 442.321L433.866 437.88L445.057 437.038C442.114 436.742 438.952 436.663 435.734 436.886L427.656 437.453L414.043 438.943L396.16 440.767L372.107 443.155C375.25 443.674 378.512 443.263 382.287 442.996L382.291 443ZM243.13 464.007L248.734 463.708L267.74 463.328L275.232 462.789L281.465 462.286C300.706 460.737 319.167 457.155 338.014 453.054C351.384 450.147 364.146 448.538 377.731 447.037L411.721 443.279L405.412 442.037C405.173 442.381 403.508 443.618 402.592 443.71L362.891 447.719C354.025 448.614 345.808 450.531 337.11 452.16L325.129 454.404C306.45 457.902 288.109 461.076 269.102 462.306L262.817 462.713L246.794 462.977C245.779 462.993 244.062 463.604 243.13 463.995V464.007ZM387.23 444.497L393.165 444.01C396.69 443.722 399.928 443.363 403.138 442.365C397.956 442.329 393.24 442.936 388.166 443.503L377.867 444.653C381.077 445.096 383.909 444.764 387.226 444.493L387.23 444.497Z" fill="#D5F0F7"/>
<path d="M454.879 133.009V139.53C449.032 139.634 443.17 139.75 436.968 140.4L397.932 144.493C395.049 144.797 389.795 146.805 390.337 150.319C390.472 151.198 392.089 152.731 393.013 152.835C396.937 153.278 400.469 154.077 404.237 153.909C418.348 153.274 431.982 152.955 445.986 153.55C449.08 153.681 452.115 154.468 454.879 155.039V169.103L430.938 167.621L403.445 166.359C403.341 165.441 403.433 164.998 403.142 164.718C402.779 164.367 401.103 163.944 400.601 164.016L398.139 164.383C397.61 164.463 397.769 165.457 397.689 166.268L373.334 168.092L337.54 171.91C337.042 171.962 309.146 172.928 309.704 170.939L332.028 170.844C335.322 170.828 338.524 170.4 341.395 169.266C331.394 166.787 322.158 166.056 312.089 165.054L315.419 164.551L311.353 163.484L315.415 162.57L298.639 160.605C292.936 159.939 281.31 159.284 276.291 160.645C275.909 160.749 276.319 162.43 276.881 162.454L294.147 163.225L301.774 163.676L311.91 164.395C308.362 165.641 305.115 164.251 301.774 164.251H287.571C281.732 164.259 276.2 166.803 270.516 167.33L262.495 168.072L237.582 170.444C235.873 170.608 234.045 171.219 232.253 171.942C234.937 176.21 238.669 177.931 243.19 178.714C250.889 180.048 258.767 180.367 266.354 182.188C272.89 183.757 278.84 185.243 285.779 184.803L309.21 183.318C311.48 183.174 313.495 184.105 315.399 185.474L320.947 182.927C337.64 181.597 354.296 181.721 370.598 177.496C382.909 174.306 394.316 172.022 407.388 172.633C423.395 173.379 439.155 173.767 454.883 173.383V179.397L449.865 179.828L442.003 180.179L435.136 180.826C433.726 180.958 431.54 181.817 430.106 182.459L454.879 180.008V181.278C445.747 181.837 436.749 183.206 427.354 184.488L393.726 189.076L370.239 192.103C369.411 192.211 359.84 193.828 361.895 195.329C366.802 198.911 400.756 197.789 409.757 196.347L454.879 189.116V198.619L438.904 201.055L445.85 201.031L454.883 200.736V218.788L425.876 222.514C422.793 222.909 420.36 224.039 417.56 224.59C406.029 226.866 394.423 228.679 382.614 229.035L355.793 229.845C354.439 229.993 355.184 230.305 356.698 230.979L332.629 232.237C322.632 232.76 312.986 232.401 303.028 233.291L291.219 234.353L270.245 236.318C263.626 236.937 257.062 236.893 250.538 237.891L228.744 241.23C227.669 240.854 227.693 240.81 228.82 239.588L217.835 240.223C217.453 240.247 216.361 240.778 216.64 240.97L217.747 241.741L202.377 243.621L181.575 247.283C179.954 247.567 178.508 248.665 176.449 248.673C166.838 248.717 157.67 250.258 148.107 251.144C145.534 251.384 143.26 252.143 140.774 252.39L117.738 254.694C112.341 255.233 107.402 257.086 101.71 257.417L59.6394 259.877L64.2635 258.759C56.9869 257.23 50.2359 257.845 43.1264 258.376L25.0203 259.721L28.4177 258.579C25.0881 257.889 21.6867 257.988 18.126 258.208L0.473931 259.31L0.537671 245.322C20.8304 246.752 28.8001 244.264 49.4074 247.267C56.485 248.297 63.3953 248.401 70.8074 247.642C63.7139 244.42 53.9519 245.941 46.727 244.061C49.8854 243.845 53.1912 243.697 56.5009 244.089L63.1085 244.875L92.2352 246.632C98.6675 247.02 117.606 246.421 124.078 244.712L126.599 241.633C114.28 240.395 102.794 240.479 90.6301 240.623C79.3188 240.754 58.3211 238.438 50.2598 239.433C40.1911 240.679 30.4848 241.581 20.2767 241.585H0.645168L0.609335 237.133L17.8074 237.36L46.8106 236.118C53.6452 235.827 60.2448 236.925 67.1113 236.582L86.8225 235.599C80.904 233.802 75.6824 233.283 69.9869 232.624L44.2377 229.638C47.2527 229.282 50.0049 229.502 53.0119 229.853L82.5927 233.339L91.4107 233.467C92.0002 233.475 93.0437 232.636 92.8924 232.113C92.7729 231.698 91.9445 230.991 91.3351 230.919L74.5035 228.999C77.9287 228.552 80.9438 228.723 84.2934 228.899C105.725 230.005 104.753 227.27 120.283 227.37L154.818 227.589C164.17 227.649 173.04 227.222 182.272 226.527C189.142 226.012 196.033 224.81 202.979 225.102C213.47 225.541 223.339 226.264 233.882 226.092L278.761 225.365C285.221 225.261 314.431 222.358 318.653 219.204L323.492 215.586C322.047 215.271 319.581 214.759 317.825 214.863L284.265 216.896L256.003 218.365L195.615 220.665C183.387 221.132 171.924 221.564 159.765 222.634C146.844 223.772 134.298 223.528 121.541 222.714C115.057 222.298 110.831 219.112 105.16 217.055C88.9772 211.182 49.5388 204.661 33.1055 207.476L11.6339 211.158C7.89004 211.801 4.6878 213.538 0.569516 213.174L0.450011 205.559H7.08149L15.1508 204.789L28.1031 204.31C21.0813 206.142 12.8925 205.2 5.89859 207.197L11.6339 207.584L8.28433 208.602C11.9247 208.89 14.7923 208.227 18.1897 207.78C21.9655 207.28 25.9006 207.161 29.5927 206.25C33.0498 205.396 36.3675 204.453 40.0039 204.725C46.8704 205.236 53.5138 206.414 60.3763 206.438L71.5163 206.478L54.1231 204.645C53.5217 204.581 52.076 203.259 52.4464 202.928L54.3064 201.263C49.9252 201.742 46.7429 201.782 42.6804 201.742L35.4953 201.674C33.2569 200.137 31.5682 200.432 29.513 201.93C28.0792 202.972 24.5783 202.525 22.6864 202.932C18.6717 203.791 15.099 203.763 10.9568 203.946L0.477918 204.413L0.489879 197.038L9.51901 197.246L5.30914 196.052L18.3769 195.669C22.2323 195.557 25.347 195.756 29.1187 195.956L51.0723 197.114C53.0836 197.222 54.8918 197.078 56.9151 196.367C52.7929 194.866 49.0689 194.63 44.8909 194.399L31.9107 193.676C37.9567 193.313 44.0425 193.249 50.3235 193.6L72.4881 194.842C83.1423 195.441 93.454 195.836 104.176 195.337C106.609 195.225 107.633 193.488 108.673 191.699C113.213 190.382 118.423 190.334 123.353 190.861L168.439 195.701C170.654 195.94 172.761 196.02 174.485 198.204C158.857 200.572 134.139 196.631 119.594 198.404L99.8664 200.808C96.5049 201.219 93.0517 200.572 90.1721 203.595L131.594 207.792L170.188 211.876C179.576 212.871 188.812 212.547 198.598 210.463C192.703 207.081 186.498 208.738 180.476 205.631L207.882 207.284C212.131 207.54 216.138 206.717 220.336 206.286L248.949 203.331C252.498 202.964 255.891 200.516 259.571 198.795C253.948 197.513 248.877 198.296 243.433 198.564C227.258 199.354 211.434 198.017 195.356 196.136C190.405 195.557 185.876 195.497 180.926 193.313C185.124 192.187 188.983 192.223 193.125 192.662C210.53 194.511 227.501 194.423 244.879 192.81C246.647 192.646 247.631 192.913 249.359 192.274C251.418 191.512 257.488 190.769 256.058 189.615C251.849 186.217 222.714 186.349 214.366 183.202C208.758 181.086 203.636 178.918 197.435 178.61C188.656 178.175 179.791 176.813 170.845 179.932C179.91 183.514 189.792 182.615 198.765 185.478C194.24 190.206 171.936 186.556 165.87 185.502C147.888 182.388 135.242 180.882 117.076 184.173C111.624 185.159 106.076 186.56 100.5 186.385C90.4111 186.065 80.892 184.121 71.0065 182.228C57.7157 179.684 44.8909 178.818 31.3412 178.706L0.561543 178.45L0.465958 173.942C3.246 173.914 5.85875 174.05 8.47151 173.799L17.8154 172.904L0.438099 172.649L0.557556 165.433C7.88603 164.419 14.4817 163.996 21.7464 161.708C14.5374 159.611 7.84225 160.258 0.434113 160.034L0.700934 150.651L31.3332 150.323C42.6127 150.203 53.4142 149.525 64.6857 150.431C85.078 152.068 104.777 152.304 125.193 151.673C136.198 151.334 146.725 151.102 157.642 151.789L194.448 154.109C190.959 156.624 176.608 153.254 179.177 156.177L192.408 156.449C194.38 156.489 196.176 156.552 197.877 156.409L197.654 154.324C199.932 153.917 218.014 152.416 219.548 155.167C213.537 156.493 208.125 156.844 202.314 157.06L193.077 157.399L168.575 158.13C167.942 158.15 166.747 159.99 167.316 160.326C170.757 162.354 174.784 163.297 178.867 163.808C202.266 166.751 225.645 167.166 249.128 164.69C265.538 162.961 258.062 159.284 264.721 158.625C284.106 156.704 305.828 159.551 325.257 162.183C336.325 163.68 346.82 163.441 357.964 163.832C374.278 164.407 389.974 163.548 406.125 162.794C407.862 162.714 409.283 163.033 411.195 162.614C418.074 161.097 423.602 162.742 428.345 159.092C423.861 158.88 419.898 158.785 415.712 158.182C413.995 157.934 412.689 157.994 410.9 158.002L382.025 158.146C378.771 158.162 376.003 157.686 372.514 156.864L374.103 153.266C352.058 150.471 330.67 153.286 308.839 152.34L281.995 151.178C279.581 151.074 277.12 150.751 274.539 150.447L285.118 149.96C286.798 149.884 288.893 148.618 290.761 149.133C300.121 151.721 309.094 150.731 318.462 150.04C320.971 149.856 322.907 149.816 325.396 149.237C331.191 147.887 337.265 147.62 343.275 147.44L378.241 146.382C381.555 146.282 384.729 145.863 387.943 144.813C378.456 142.984 369.753 142.952 360.597 142.673L352.36 142.421C342.304 142.113 332.685 141.69 322.7 139.51C324.863 139.159 327.145 139.386 329.594 139.646L336.341 140.365L354.754 140.86C359.012 140.975 363.054 142.365 366.822 139.722L366.201 139.087C366.089 138.971 366.245 138.875 366.4 138.835L367.83 138.476L365.942 137.11C375.027 136.268 383.387 136.024 392.559 136.124C413.653 136.355 434.232 135.126 454.863 132.997L454.879 133.009ZM25.8528 153.166C23.5706 150.595 21.153 152.555 18.9823 152.575C14.0236 152.627 9.38758 152.587 4.74355 152.979C12.0601 153.338 18.9186 153.278 25.8488 153.162L25.8528 153.166ZM138.596 154.085C138.046 153.066 137.624 152.296 137.102 152.212C136.58 152.128 135.25 152.875 134.693 152.923L126.97 153.63L138.596 154.085ZM100.456 170.504C117.451 174.27 134.119 175.02 150.827 174.334C152.496 174.266 154.193 173.647 155.838 172.996L151.492 169.306L166.567 168.863C172.291 168.695 177.791 169.55 183.57 167.953L157.733 163.077C144.435 160.565 131.403 158.888 117.825 159.284C117.287 159.3 115.575 158.844 115.595 158.337L115.658 156.521C115.678 155.961 113.775 155.718 113.261 155.953C112.851 156.141 112.329 156.82 112.217 157.111L113.125 158.729C113.265 158.976 111.871 159.703 111.353 159.727L78.4744 161.113L70.2339 161.468C66.6931 160.873 63.1045 159.204 59.8903 162.418C63.3594 163.604 66.6851 163.5 70.1343 163.88C81.139 165.098 91.6975 165.924 102.722 165.158C109.744 164.67 116.65 164.211 123.899 165.134C116.204 168.951 108.242 166.579 100.46 170.504H100.456ZM437.689 166.196C431.639 164.311 426.071 164.451 420.137 164.567C423.036 166.775 426.334 165.952 429.572 166.02L437.689 166.196ZM68.0911 166.04C65.6854 164.419 63.3315 164.555 61.587 165.685C63.694 166.95 66.1674 167.533 68.0911 166.04ZM48.4396 167.262C37.3752 164.818 26.6015 165.828 16.1385 168.3C27.2388 169.782 37.8491 169.522 48.4396 167.262ZM212.351 173.116C208.953 174.521 207.842 173.671 204.903 172.601C203.831 172.213 189.608 169.873 188.672 172.676C198.622 174.074 208.376 174.817 218.663 174.821C217.249 173.267 213.741 172.541 212.351 173.116ZM98.2294 176.003C88.7303 173.116 79.0001 173.263 69.027 172.597C66.7409 172.445 64.4268 171.415 62.7381 173.028L70.4928 174.429C78.1518 175.815 90.2199 177.129 98.2334 176.003H98.2294ZM412.956 178.003C412.733 177.947 411.649 177.436 411.335 177.424L399.625 176.897C398.681 176.853 396.933 174.992 396.088 175.244C390.895 176.789 396.204 175.911 391.456 178.359L390.198 179.01C385.549 181.405 420.049 179.768 412.956 178.003ZM349.612 182.875C340.396 182.511 331.426 182.655 322.529 184.512C331.809 185.259 340.487 184.935 349.612 182.875ZM246.058 195.377C250.379 196.016 254.302 195.784 258.58 196.044L275.901 195.062C277.61 194.966 279.685 195.497 281.302 195.96C281.429 195.74 281.557 194.958 281.804 194.938L283.198 194.826L295.541 193.916L307.955 193.253L325.826 192.27C335.075 191.763 343.861 190.573 352.986 189.196C355.236 188.856 357.566 189.519 359.298 188.026L349.325 188.86C346.517 189.096 344.06 189.3 341.22 189.427L318.462 190.454L292.39 192.019L294.939 193.265L290.228 193.528L289.558 192.131C286.296 191.939 282.576 191.947 278.912 192.227C267.792 193.069 257.142 193.057 246.062 195.381L246.058 195.377ZM28.9833 200.564C26.1594 198.192 23.4033 199.913 20.8144 199.937L14.5932 200.46C19.7032 200.76 24.2596 200.744 28.9873 200.564H28.9833ZM291.626 209.928L329.53 205.579C334.824 204.972 339.496 204.465 344.594 202.784C337.369 200.185 327.913 201.487 319.131 200.348C311.536 199.366 304.478 198.759 296.755 199.614C288.587 200.512 280.199 200.624 272.285 202.84C249.017 209.349 243.441 205.26 220.77 209.093C227.808 211.749 234.886 210.515 241.88 210.231C252.39 209.808 262.252 210.06 272.743 210.878C278.888 211.357 285.074 210.683 291.626 209.932V209.928ZM446.224 205.655C446.73 205.587 447.806 204.13 447.459 204.058C435.088 201.542 406.316 204.849 409.359 205.903C409.614 205.991 410.522 206.594 411.06 206.59L436.849 206.306C440.019 206.27 443.667 205.991 446.224 205.655ZM253.665 216.109L249.817 217.012C258.464 217.207 266.673 217.287 275.045 216.077C276.674 215.842 278.092 215.043 279.808 215.454C281.999 215.977 284.15 215.758 286.356 215.558L294.354 214.827L316.602 212.16L323.935 211.473L331.406 210.87L338.819 210.291L348.087 209.652C350.528 209.485 352.914 209.181 355.539 208.858C351.086 208.395 346.633 208.71 341.921 209.085L335.063 209.632L317.136 210.056L324.683 210.758L316.586 211.513L310.293 212.1C308.493 212.268 306.235 212.092 304.319 212.036L298.639 211.876L268.441 212.396C262.59 212.495 257.082 212.711 251.056 213.122L277.395 213.897C263.949 216.512 251.1 214.528 238.116 215.67L253.673 216.117L253.665 216.109ZM224.522 216.433L233.918 215.594L228.796 215.039L231.488 214.061C226.757 214.524 222.248 214.54 217.851 215.394C213.749 216.193 210.379 216.74 206.185 216.301C202.373 215.901 198.299 216.504 195.368 219.1L227.768 217.73L224.522 216.433ZM397.705 218.126L401.867 216.644C399.932 216.524 398.311 216.884 396.678 217.499L390.779 219.703C393.483 220.45 395.499 218.912 397.705 218.126ZM380.137 224.331L388.919 223.544C387.788 222.394 386.828 222.662 385.303 222.79L371.374 223.952L376.082 221.715L346.211 226.068C350.664 226.471 359.733 224.842 364.747 225.353L343.068 227.825C353.507 228.5 363.942 227.286 374.087 226.052C375.465 224.199 378.042 224.519 380.137 224.335V224.331ZM328.419 228.939C323.696 228.18 323.795 229.286 317.024 229.366L313.444 229.41C306.597 229.49 300.061 229.278 293.493 227.03C291.606 226.383 290.148 228.06 288.614 228.164L275.176 229.087L297.552 229.702L308.668 230.129L301.69 231.694C309.501 231.339 321.425 231.283 328.415 228.943L328.419 228.939ZM332.669 227.03L319.669 226.839C318.912 226.827 317.156 227.605 316.503 227.949C323.003 228.276 326.324 228.236 332.669 227.03ZM255.943 230.388L239.434 228.799C233.95 228.272 228.939 228.791 223.28 229.059C223.22 229.059 200.896 229.426 204.887 231.323L206.444 232.065C216.321 236.757 233.153 234.944 245.13 233.243C248.646 230.041 254.171 232.736 255.947 230.392L255.943 230.388ZM176.298 238.402C182.598 237.46 188.816 237.528 194.714 234.357C179.97 232.776 166.117 233.223 151.755 233.327C148.449 233.351 145.49 233.898 142.344 234.461L129.172 236.821C125.389 237.5 121.689 237.851 117.988 239.548C133.111 243.178 161.195 240.659 176.298 238.402ZM68.7243 250.541L76.3993 250.142L85.6794 249.543C91.5581 249.164 97.4647 249.707 103.204 248.848L110.413 247.77C98.6715 246.56 92.972 248.385 80.7128 248.98L68.9872 249.551L57.2895 250.118L56.0389 250.178C55.8318 250.19 56.9151 251.284 57.1222 251.268L68.7283 250.537L68.7243 250.541ZM43.1862 249.06C40.7288 248.765 38.5541 248.693 36.3755 248.896L28.123 249.675C28.6368 251.033 42.1905 249.795 43.1822 249.06H43.1862Z" fill="#D5F0F7"/>
<path d="M454.879 55.34V65.0272C448.905 65.4385 445.46 63.6736 439.41 64.6199C440.983 64.9753 443.078 65.5463 444.337 65.5543L454.879 65.6342V70.0026C440.425 70.0226 425.988 70.7573 410.729 72.2068L424.179 75.7726C408.794 75.9124 393.097 75.9004 378.201 78.1525C377.699 78.2283 376.369 78.9671 376.612 79.2865C376.855 79.606 377.855 80.5403 378.297 80.6002C391.974 82.3772 406.778 83.603 420.555 81.5586C425.561 80.8159 429.393 79.9853 434.527 80.5922C441.409 81.4028 448.268 81.894 454.879 81.6464V85.3161L414.828 85.2841C411.725 85.2841 408.674 85.4718 405.818 87.081C421.543 90.0518 439.983 91.7249 454.879 90.6388V98.9404C448.28 98.8526 441.517 99.2918 434.662 98.7408L408.566 96.6404C401.326 96.0574 394.36 95.5144 387.258 97.1475C398.996 99.4436 410.008 100.011 421.575 100.502L454.879 101.915V120.615L450.809 120.427C449.937 119.648 449.399 119.165 448.877 118.766C448.351 118.367 446.734 120.543 445.842 120.667C440.652 121.401 431.241 122.22 425 122.452L418.998 122.675C409.108 123.043 399.418 122.707 389.457 122.292L379.476 121.877C374.668 121.677 370.136 121.972 365.321 120.93C364.233 120.759 361.8 121.449 360.649 121.374C348.274 120.583 336.473 119.046 324.162 117.229L300.077 113.671C299.336 113.18 297.851 112.209 297.142 111.87C296.433 111.531 294.995 113.591 294.163 113.659L262.79 116.35C264.697 113.535 275.945 116.175 280.912 112.537C275.375 112.832 270.648 113.579 265.307 114.094L260.635 114.541C260.408 114.561 260.101 115.324 260.249 115.496L261.021 116.402L238.112 119.816L244.644 117.76C245.102 117.616 245.854 116.406 245.52 116.119L244.281 115.052C247.288 114.861 249.511 114.693 252.255 113.695C248.674 110.385 244.361 111.814 240.944 114.066L230.146 113.032L195.531 110.676C184.94 109.957 174.398 109.726 164.301 112.537C162.935 113.986 161.278 115.28 159.1 115.616C156.598 116.003 128.818 120.008 130.188 122.48C131.717 125.239 147.788 124.939 152.082 125.123C153.014 125.163 154.368 126.692 155.117 126.784C155.742 126.86 156.961 125.355 157.658 125.323L194.201 123.697L220.926 122.068L232.699 121.146L223.463 123.725C218.385 125.143 213.645 126.465 208.356 127.407L159.705 136.084C158.144 136.364 148.991 138.54 151.221 140.56L152.918 142.098L141.842 142.732L108.489 144.765C94.5214 145.615 81.1151 146.745 67.179 145.46L30.8035 142.106C20.5675 141.163 10.925 140.808 0.748751 141.463L0.649179 138.612C7.432 138.556 13.8445 138.404 20.6034 138.935C23.1803 139.139 25.6377 138.863 28.2345 138.823L72.1656 138.164L62.8178 139.298C58.827 139.782 55.0591 139.973 51.0364 140.097C49.1764 140.153 47.7864 140.508 46.1614 142.237C52.2791 142.972 58.1618 143.515 64.8689 143.471L57.0386 142.082L52.2672 141.315C69.748 141.283 86.2808 140.257 103.654 138.045C103.79 137.613 103.869 137.222 103.905 136.863L89.9212 136.663L96.3137 135.832L118.546 132.846C122.31 132.338 126.034 132.251 129.734 129.899C121.864 125.438 91.5701 124.632 84.6638 125.566L43.6482 131.109C41.844 131.352 40.2229 131.312 38.4864 131.68C26.7409 134.159 12.5659 135.633 0.525735 134.619L0.581501 129.703C4.45285 129.583 7.23687 129.511 11.0365 128.892C7.47983 127.882 4.95468 127.738 0.573528 127.754L0.529722 117.832C11.5105 117.432 21.7385 116.682 32.5798 117.297L59.1973 118.81C55.2742 119.261 52.064 119.253 48.4436 120.116C51.9764 120.982 54.6171 120.978 57.9746 121.366L39.7888 122.875C42.8397 123.969 45.2016 123.713 48.1728 124.308C44.0625 125.442 39.9362 124.472 36.1844 126.505L65.8965 124.249C69.035 128.294 72.2851 125.75 80.1353 125.231L99.3207 123.957C93.219 123.638 87.177 123.809 80.7686 124.105C78.5182 124.209 76.3834 125.802 74.0534 123.781L79.7728 123.15C87.5434 122.292 94.9356 121.513 102.431 120.092C99.6951 119.9 97.6559 120.04 94.8679 120.184L96.2619 119.505C94.4378 119.581 92.5778 120.287 90.3394 118.319L106.43 116.506C108.199 116.306 109.899 116.29 111.309 114.354L65.2991 109.346L36.953 108.093C36.4591 108.073 35.2364 107.194 35.3918 106.743L44.3213 103.704C37.7894 100.098 17.6879 96.0215 10.9011 95.8538C7.67495 95.7739 4.42096 98.1019 0.501815 96.7961V75.4971C7.4559 76.4434 13.9321 76.0681 20.7746 74.7065C31.3133 72.6061 41.5134 71.1486 52.3309 71.1526C58.5003 71.1526 64.2516 70.3061 70.3494 69.4675C82.9193 67.7346 95.1666 67.2993 107.848 66.5845C118.466 65.9856 128.993 65.6462 139.205 62.0205L73.9977 64.576C58.815 65.171 49.6345 68.8925 35.6387 69.779C23.6543 70.5377 12.3747 72.091 0.302671 73.6922C5.89462 71.4601 11.7694 72.1269 17.8472 70.0386C16.2581 66.8281 1.23864 73.6044 -3.05176e-05 71.0169L24.3353 66.4248C24.9009 66.317 26.0878 65.0073 25.7452 64.7837C21.0494 61.725 6.36061 63.1186 0.752737 65.0272L0.601386 60.3514L38.116 57.5243C47.3244 56.8295 56.1544 55.2003 65.2991 54.0703C71.361 53.3196 76.9689 52.1456 82.7122 50.177C78.4665 49.6459 74.7823 50.3447 70.7357 50.9157C58.3649 52.6647 46.3566 54.5335 33.8345 55.4678C29.5369 55.7913 25.1558 54.8968 20.9061 54.9567L0.561567 55.2562L0.450035 46.7989C4.47273 46.8707 7.73073 46.8947 11.6698 45.7607L0.458009 45.4931L0.585488 40.2862L4.35725 39.7271L0.426164 38.8207C5.28128 38.8207 9.35176 39.1681 14.0555 38.7249C21.7385 38.0061 29.6963 39.1002 37.0367 37.6427C42.5092 36.5566 47.0616 35.1071 53.1155 35.2948L51.1798 34.053C54.4099 34.4203 57.7237 34.8476 60.8502 35.8459C57.4807 36.5446 54.5175 36.6445 51.7574 37.3832C41.6528 40.0825 30.449 37.7506 18.9704 40.6176C27.4738 42.7539 35.2962 40.1464 43.7757 40.8132L41.1988 41.7197C45.3688 43.4607 49.7141 42.1669 54.2267 41.6159L74.7226 39.0962C77.1521 38.7967 79.3626 38.2257 81.374 37.3912L63.4471 39.0243L69.7081 36.7643C74.388 35.0752 81.9833 35.0273 87.1292 33.1426C84.6956 32.7353 83.3853 32.9389 81.1111 32.2361L100.563 30.2156L98.0064 28.7023C101.296 27.8318 104.594 27.8877 108.175 28.7861C111.01 29.5009 121.147 29.4649 124.664 29.2773L144.582 28.1951C146.474 28.0913 148.979 27.8038 150.6 27.5762C153.886 23.639 165.58 27.3246 170.514 25.0007L153.32 24.0024C161.513 20.9317 171.757 23.9784 179.599 22.6967L168.384 20.177C173.251 19.9135 177.465 20.8718 181.973 21.8781C189.788 23.6231 187.195 20.9717 192.866 22.8125L190.6 24.254L193.197 25.372L172.701 26.3503L157.933 27.9675C148.007 29.0536 147.119 28.0154 137.783 29.8403C133.526 30.6748 129.583 30.8385 125.663 32.8391L141.165 30.9903C140.117 32.0564 139.846 32.4557 140.854 32.288L151.859 33.2424C157.917 33.7655 163.775 31.4615 169.726 32.4398L163.282 33.9332C171.411 35.183 176.784 31.6332 181.933 31.4016C182.606 31.3696 184.69 31.717 184.47 32.2361L183.359 34.8636C187.852 34.5441 192.106 33.6856 196.28 32.304L211.554 27.2408C205.739 26.3703 200.824 26.8814 195.515 26.4901C197.263 26.1507 199.016 25.8352 200.569 25.7114L209.144 25.0246C213.115 24.7052 216.505 24.789 221.009 25.0885C220.157 26.1028 219.42 26.2585 217.68 27.0092L221.591 28.3908C215.935 27.9276 211.172 28.7142 205.894 30.8026C194.945 35.1391 182.75 36.0535 170.777 36.6844L142.495 38.1778C140.603 38.2776 139.819 38.5052 138.476 39.3797C132.466 43.3089 126.679 38.7009 124.903 42.9016L127.089 44.5907L114.766 45.8246C108.951 46.4075 103.12 46.9706 97.5603 50.1131C107.573 50.193 116.714 49.4383 126.416 48.7275C128.356 48.5838 130.331 46.699 132.024 46.2598C136.17 45.1857 140.858 45.5011 144.996 45.597L141.639 47.1343L147.979 47.5016C147.083 48.2483 146.669 48.5718 146.056 49.3664C161.262 52.3652 176.051 53.8347 191.381 55.0406L212.645 56.7097L230.158 57.1449L244.393 57.9875L238.717 59.8203C241.776 60.3074 244.022 60.4392 246.878 60.4512C260.535 60.5111 273.754 61.9725 286.97 65.8618C281.398 64.8356 277.323 66.0055 274.001 65.6062C271.556 65.3147 269.652 65.3347 267.736 66.912L292.538 66.9399L326.404 67.483L323.791 65.3387L362.883 66.2252C370.18 66.3889 377.154 65.8019 384.148 64.4522C377.46 62.4956 371.617 62.3718 365.902 59.6925L377.966 59.96L392.543 60.2875C397.749 60.4033 402.767 61.5852 407.714 59.6086C398.271 58.3309 390.918 59.3691 381.969 59.1694C369.479 58.8859 357.423 58.5465 344.996 57.113C338.707 56.3862 333.262 57.5362 325.814 55.2442L327.232 54.3857C327.372 54.3018 327.34 54.3458 327.232 54.23L326.587 53.5192C341.686 56.4222 356.686 57.7798 372.139 57.3765C377.978 53.7268 381.069 57.5602 385 55.1604L363.042 50.1451L347.453 45.1058C351.966 43.3808 356.208 45.1058 360.179 46.5273C365.129 48.3042 370.466 48.9431 375.748 50.4525C376.875 50.776 378.731 51.8341 379.834 52.0018C385.796 52.9043 391.44 53.8586 397.426 54.0942L422.021 55.0645C433.177 55.5038 444.01 55.5197 454.879 55.364V55.34ZM123.529 31.2498C115.575 29.3771 107.904 30.6788 100.424 31.9726C108.402 32.2761 115.874 32.0764 123.529 31.2498ZM147.625 35.774C142.212 34.9754 137.25 35.5144 132.478 36.7403C137.779 37.1596 142.69 37.475 147.625 35.774ZM93.8085 37.1676C87.878 37.2594 82.0909 38.3615 76.248 39.8469C82.302 40.2542 87.9975 39.1042 93.8085 37.1676ZM104.614 43.1971C108.059 42.4784 110.911 41.7836 114.053 41.3044C116.053 41.0009 117.761 40.8412 119.789 39.7391C115.674 39.5275 112.313 39.6313 107.78 40.2662C98.8508 41.516 87.3801 42.686 78.9165 43.2969C70.3294 43.9159 92.8566 45.6409 104.614 43.1971ZM43.6443 44.6546C41.9635 44.1075 39.988 43.2011 38.9524 43.273L28.832 43.9478L38.7811 45.3334L43.6443 44.6546ZM63.8613 46.743C64.8331 46.707 65.4664 46.3756 65.9682 45.4652L48.5671 46.0841C47.2368 46.132 46.2212 46.2798 45.4405 47.3858L63.8613 46.739V46.743ZM130.164 51.902C126.165 51.5227 122.621 51.4069 118.458 52.1256C122.533 53.3595 126.436 53.3755 130.164 51.902ZM171.956 56.0868C167.253 54.5414 162.744 53.7827 158.156 54.9647C162.788 56.5819 167.308 57.2927 171.956 56.0868ZM117.558 58.4706C121.362 57.8477 116.403 52.7725 98.6716 57.0091C94.3342 58.0434 85.8268 58.4866 85.6237 60.0798C96.5527 60.4152 106.637 60.2595 117.558 58.4706ZM417.93 57.0651L416.767 55.8432L406.627 55.951L407.79 57.1729L417.93 57.0651ZM67.9955 60.567C63.2997 58.4387 59.4044 61.134 55.3698 59.9361C57.7595 58.6303 60.7825 60.2795 62.5191 57.109C51.9326 57.2288 41.617 58.247 31.385 60.7187C37.3155 63.0946 42.4136 59.8003 48.125 60.9423C45.6755 62.292 42.6167 60.4592 40.2031 63.1186C49.6743 64.2686 58.9823 62.9149 67.9955 60.563V60.567ZM154.71 58.1632L143.558 57.1569C145.566 58.1073 147.438 58.3388 149.66 58.6224C151.305 58.6982 153.034 60.7347 154.71 58.1592V58.1632ZM410.51 59.964L430.197 60.3114C437.414 60.4392 444.58 59.0895 451.346 57.4045L432.643 58.4706L417.165 59.1015C414.935 59.1934 412.514 59.6206 410.51 59.968V59.964ZM195.443 61.1859C193.731 61.11 191.516 59.5967 191.042 62.0045L206.755 61.685L195.443 61.1859ZM423.458 62.9429L410.419 62.3918C407.272 62.26 404.416 61.9685 401.099 62.0764C403.879 64.013 419.543 63.1066 423.458 62.9429ZM187.517 74.7424C185.175 73.824 184.335 73.7601 182.849 72.5262C191.325 70.5616 199.346 71.1127 207.922 71.6877C218.867 72.4224 229.389 72.9455 240.282 72.682C243.413 72.6061 246.428 71.1247 249.495 70.7294C259.022 69.4915 269.604 71.0408 277.821 68.3175L250.765 67.2354L236.18 64.7437C221.531 62.2401 200.354 66.297 185.438 65.2908L168.455 64.1448C145.685 62.6074 136.541 66.9319 114.129 68.5491L97.9905 69.7111C95.6525 69.8788 93.8523 70.961 92.2631 73.0094C93.3743 73.3568 94.5532 73.7361 95.3896 73.792C106.076 74.5507 116.001 75.1018 126.679 76.6111L122.648 78.3002L141.902 79.7856C143.531 79.9134 165.313 81.331 163.935 78.408L136.768 77.4178C144.005 76.723 150.759 77.2261 157.941 77.3539C168.109 77.5375 177.974 76.4993 187.513 74.7304L187.517 74.7424ZM379.838 68.9564L398.167 69.2679C397.41 68.1339 396.415 68.0779 395.009 68.054L379.34 67.8144L362.194 68.3295L372.753 68.9165L379.838 68.9524V68.9564ZM376.058 70.1104L345.645 68.8925C335.995 68.5052 326.946 68.5891 317.323 70.7733C319.219 72.2148 320.931 72.5382 323.018 72.8497C341.674 75.6368 360.521 75.537 379.408 72.2307C379.583 70.5137 377.759 70.1823 376.062 70.1104H376.058ZM319.287 76.1839C315.606 73.5485 311.767 74.4309 307.943 73.6802C296.126 72.3026 284.221 71.7276 272.787 76.1999C274.678 77.4697 276.909 77.7851 278.952 77.7092L319.287 76.1879V76.1839ZM106.701 82.3133C118.084 82.453 128.997 83.3355 140.647 81.7023C134.916 79.606 129.539 79.8695 123.863 79.0709C109.246 77.0105 94.9715 75.5051 80.0995 75.3813C76.1007 75.3493 72.5599 75.1297 68.9952 74.7983C70.0706 73.6084 70.2179 73.3568 69.3497 73.6802C68.6088 74.0276 67.2109 74.9021 66.5178 74.9181C58.118 75.1217 53.924 73.8999 45.5919 78.3841L62.9731 80.5363L75.1288 82.1775L74.1371 80.9796C74.0335 80.8558 74.2088 80.74 74.5911 80.3407C85.4006 81.4947 95.784 82.1775 106.693 82.3133H106.701ZM191.99 92.7871C205.588 91.0301 218.412 90.6468 231.922 92.9308C227.063 94.3164 222.575 94.1687 217.759 94.3963C209.073 94.8036 200.645 95.4066 192.285 97.6467L169.861 103.656C169.483 103.756 168.595 104.115 168.702 104.387L168.945 104.994C169.431 106.204 184.303 104.343 186.924 104.028C202.597 102.151 217.365 100.378 233.324 99.4875L230.871 101.376L234.671 101.416C235.491 101.424 236.347 103.073 236.327 103.604C234.87 104.271 233.91 104.67 233.173 105.681L256.138 105.653L248.176 104.375L241.135 103.481L242.409 101.204C240.489 100.729 239.374 100.502 237.893 99.3238L261.045 96.6883C270.962 95.5583 280.685 95.6541 290.654 95.2508C295.887 95.0392 301.057 95.2708 306.211 92.847C295.262 90.3633 285.277 88.9338 275.188 85.4718C280.593 85.0685 285.464 85.6634 290.701 86.3303C300.225 87.5402 309.389 88.4945 319.075 88.6023L364.09 89.0975C368.232 89.1414 372.299 89.7364 376.349 87.9315C351.217 82.4929 326.404 80.9756 301.212 81.9938C294.003 82.2853 287.304 82.453 280.294 81.8101L249.168 78.9631C236.495 77.8051 222.929 76.0801 210.2 78.7994C192.237 82.6407 174.103 84.6213 155.953 83.7907C160.442 82.8164 164.596 83.635 169.093 82.2813C159.637 82.1256 150.158 81.3629 140.615 83.1358L135.382 84.1101C126.982 85.6714 118.729 84.4416 109.836 86.0867C115.276 87.8636 120.119 87.8077 125.309 88.7102C135.983 90.563 146.426 91.094 157.303 90.1716C170.013 89.0895 182.049 87.4523 194.619 85.3121C210.363 82.6287 225.785 80.9955 242.059 82.1456C239.773 83.1877 237.152 83.4513 234.463 83.4393C220.105 83.3834 206.555 84.9886 192.444 87.5003C168.603 91.7409 145.068 92.7631 120.96 90.7466C94.9715 88.5744 79.4781 89.9081 52.4862 85.5117C36.4472 82.8962 40.2986 89.3011 31.9824 89.6525C26.5577 89.8801 21.396 90.2475 15.808 91.5572L38.9046 98.3295C53.1593 102.51 68.4336 102.039 83.7358 101.368C77.3831 97.3632 70.8353 98.6649 64.2835 95.9935C64.1321 96.0934 64.7853 95.6621 65.3151 95.3107L119.016 101.504C131.271 102.918 143.025 102.51 155.077 101.328C160.338 100.809 163.947 98.2496 168.575 96.4767C175.8 93.7095 183.981 93.8213 191.99 92.7831V92.7871ZM347.629 81.1752C341.336 79.4702 335.214 79.2346 328.722 80.0572C334.975 81.2431 341.244 81.303 347.629 81.1752ZM99.3407 88.3987C95.2264 87.1888 91.3511 87.3725 87.5156 87.7918L94.4338 88.6623C95.9871 88.8579 97.867 88.7261 99.3407 88.3987ZM130.399 106.643C135.477 106.919 139.99 106.675 144.53 105.413C137.508 103.369 130.813 103.964 124.03 103.065C119.809 102.506 116.204 103.429 112.177 103.461L86.8066 103.644C88.9215 104.215 91.2395 104.515 93.7248 104.651L130.395 106.643H130.399ZM336.584 107.705C339.898 107.753 342.997 108.136 345.573 106.04C332.773 104.211 320.573 104.223 308.015 104.487C303.873 104.575 299.826 104.726 295.764 107.138L336.584 107.709V107.705ZM115.412 108.632C109.465 106.811 104.291 106.951 98.7791 107.522C104.554 109.059 110.19 109.746 115.412 108.632ZM223.216 109.718L210.092 109.259C209.435 109.235 207.75 108.069 207.221 108.176L200.725 109.474C206.814 110.604 217.672 110.173 223.216 109.722V109.718ZM328.455 112.605C325.404 112.529 323.178 112.521 320.238 112.621C316.124 112.76 317.327 110.093 307.82 112.118C311.428 112.76 314.439 113.304 317.474 114.342C323.003 112.713 325.165 114.917 328.455 112.601V112.605ZM436.582 118.606C437.068 118.694 438.287 118.506 438.374 118.071L438.701 116.462L444.412 115.835C432.392 114.529 438.494 118.055 430.779 117.632C417.122 116.881 403.624 115.372 389.696 118.842C403.688 120.89 417.58 120.535 431.341 119.109C433.185 118.918 434.762 118.275 436.578 118.61L436.582 118.606ZM118.574 117.496C115.814 115.368 113.137 116.454 111.584 118.506C114.141 118.726 116.531 118.435 118.574 117.496ZM204.249 127.1C206.221 127.14 208.268 126.72 210.403 126.105L219.074 123.606C205.388 123.15 211.753 123.877 200.458 125.722L205.484 125.926L204.253 127.1H204.249ZM199.828 126.353L196.196 125.187C194.607 124.676 192.572 124.472 191.202 125.123L186.88 127.167L199.828 126.353ZM18.9744 127.048L13.4143 127.263L13.486 129.028L19.0461 128.813L18.9744 127.048ZM166.325 127.587C164.329 127.515 162.087 125.734 160.557 128.222C166.822 128.333 172.494 128.393 178.349 128.014L166.321 127.591L166.325 127.587ZM156.3 134.798C166.129 133.92 175.991 132.478 186.482 129.971C185.016 129.547 183.399 129.563 181.746 129.715L161.119 131.584C159.574 131.724 158.104 133.193 156.3 134.802V134.798ZM98.6875 142.84L115.535 141.291C117.379 141.123 119.359 140.253 121.031 139.167C109.107 139.171 93.8085 139.398 83.0627 141.882C87.1172 143.252 91.0324 142.561 94.4896 143.12C94.8361 143.962 96.7 144.933 97.5205 144.721C98.0861 144.573 98.2215 143.655 98.6915 142.84H98.6875Z" fill="#D5F0F7"/>
<path d="M454.879 298.462V302.328L444.743 301.92L429.604 301.282C426.087 301.134 422.769 300.607 419.483 301.593C431.611 303.598 443.225 304.3 454.883 304.756V308.114L433.874 306.433C429.847 306.109 426.039 307.343 422.104 307.355L407.742 307.399C407.304 307.399 406.4 307.946 406.117 308.118C405.751 308.345 406.938 309.715 407.467 309.823C419.607 312.318 443.305 315.173 454.883 311.432V315.685C450.299 315.505 435.785 314.93 431.086 317.29C435.503 318.232 439.796 318.284 444.396 318.288L454.883 318.296V333.677C440.489 333.721 426.115 332.871 411.542 331.138L402.911 330.112L407.439 329.233C399.314 328.295 391.313 327.688 383.212 327.979C387.374 328.702 391.054 329.209 394.758 330.511L408.774 331.817C411.777 332.096 414.493 333.186 417.44 333.757C429.903 336.173 442.496 336.101 454.887 335.77V345.221C452.179 345.082 449.347 344.962 446.372 344.646C432.245 343.137 418.563 342.486 404.257 342.346L363.492 341.943L334.999 344.107C334.346 344.155 332.872 343.548 332.39 343.197C334.995 341.544 336.64 340.549 338.942 338.864C340.308 337.862 339.157 335.095 337.671 334.556C318.685 327.664 299.703 330.351 279.912 333.018L248.925 337.195L218.635 341.548C220.029 342.766 221.507 345.058 222.734 345.485C228.286 347.414 235.822 347.01 241.816 347.433L261.826 348.839C273.308 349.646 284.608 349.406 296.182 349.202C302.315 349.095 308.119 348.823 314.579 349.518C310.126 353.806 304.498 355.16 298.902 355.507L265.347 357.588C252.797 358.367 240.828 358.163 228.246 357.021L172.275 351.934C160.537 350.868 149.35 350.46 137.544 350.608C127.926 350.728 118.785 350.293 109.146 349.749C94.5453 348.923 80.5335 349.027 65.9801 350.277C55.7959 351.151 46.2729 350.269 36.2281 349.526C24.2278 348.635 12.773 349.43 0.573505 349.797L0.509766 339.495L17.19 340.214C26.267 340.605 35.2006 339.379 44.2855 338.912L54.8281 338.369L87.5076 339.879L112.859 338.773L124.572 337.734C131.924 337.083 139.257 338.601 146.542 339.723C159.104 341.66 171.028 343.217 183.893 343.72C189.003 343.92 205.711 343.956 209.136 341.604C209.296 341.496 208.276 340.741 208.049 340.733L193.97 340.286C188.852 340.122 184.466 339.579 179.352 337.998C186.151 336.648 192.647 336.441 199.705 336.093C230.226 334.6 249.503 333.066 280.103 324.925C275.467 322.812 270.962 323.699 266.438 324.01L231.361 326.426C192.942 329.073 142.28 320.376 103.12 324.154L103.3 327.78L81.9753 327.644L60.4559 327.58L49.8296 329.509C52.5818 329.009 11.4786 331.138 9.04906 331.301C16.6922 329.473 24.877 329.872 32.6993 328.399C29.9312 326.761 20.5157 330.259 17.0865 328.962L20.4241 327.915C17.9707 327.536 15.5212 328.271 13.3824 328.103C8.90966 327.756 5.41666 327.72 0.557558 328.55V320.604C4.43687 320.245 7.8502 320.325 11.3193 319.482C15.796 318.396 19.8864 317.138 24.5822 317.549C32.1616 318.216 32.0342 312.622 41.1987 312.849C48.2604 313.025 54.637 313.053 61.6787 312.766C80.8841 311.975 99.6792 312.071 118.98 313.173C136.182 314.151 152.496 314.275 169.654 313.776C177.827 313.536 185.864 313.644 193.886 314.634C195.933 314.886 198.383 317.202 200.948 317.358C217.353 318.36 231.795 316.683 247.758 312.961C253.087 311.719 258.448 311.931 263.622 310.354C248.037 309.559 234.348 311.464 218.934 310.661C225.621 308.685 232.329 308.257 239.33 307.008C247.73 305.506 255.724 304.121 264.251 303.745C271.261 303.434 278 302.727 284.974 302.116L308.939 300.012C316.813 299.321 324.663 298.419 332.498 297.153C339.79 295.975 346.231 295.38 353.687 295.615C365.006 295.971 376.222 296.246 387.565 295.591C398.327 294.968 408.192 294.282 418.874 295.807C430.986 297.532 442.939 298.195 454.895 298.474L454.879 298.462ZM335.421 302.535L363.556 302.04L370.924 300.523L369.825 299.584C370.789 299.365 371.426 299.181 372.378 298.582L361.067 297.979L358.573 299.165C351.751 298.91 345.08 299.489 338.229 299.86L318.382 300.942C317.45 300.994 315.997 301.629 315.232 302.14C322.138 303.23 328.3 302.659 335.421 302.535ZM393.169 314.682C393.997 314.75 395.65 313.724 395.678 313.025C395.702 312.326 394.551 310.753 393.563 310.621L359.179 306.025C344.857 304.113 330.379 303.897 315.905 307.734L364.898 314.091C374.318 315.313 383.618 313.884 393.173 314.682H393.169ZM340.181 325.967C330.351 325.751 321.222 324.278 311.365 326.186C312.547 326.582 344.259 328.646 340.181 325.967ZM380.706 327.756L376.09 326.689L348.254 325.412C347.804 325.392 346.585 326.45 346.804 326.466L348.083 326.55C359.155 327.28 369.69 328.095 380.706 327.756ZM186.9 350.137L180.81 349.534C178.154 349.27 175.708 349.091 173.263 349.386L178.994 350.237C181.635 350.628 184.447 350.36 186.9 350.137ZM243.887 354.19C239.076 352.972 234.523 352.724 230.126 352.928C233.205 353.447 235.356 353.878 238.231 354.665C239.757 355.064 242.29 354.673 243.887 354.19Z" fill="#D5F0F7"/>
<path d="M454.879 278.577V279.184C442.596 279.104 430.177 278.453 417.847 276.033C409.06 274.308 401.011 273.11 391.763 272.372L395.606 271.517C391.01 270.878 385.916 270.715 381.332 269.497C379.045 268.89 378.165 268.766 375.744 268.998C370.474 269.501 365.209 268.986 359.745 269.149C358.641 269.181 357.785 268.818 356.945 267.911L348.158 268.538C346.115 268.686 344.653 268.634 342.789 268.918C337.468 269.724 332.103 269.744 326.276 269.265L336.285 267.752C331.837 267.776 315.809 268.315 312.794 272.052L333.29 270.723C344.745 269.98 363.492 272.152 375.035 273.985C377.397 274.36 379.193 274.704 381.614 274.692C394.973 274.624 403.321 279.264 418.472 280.557L454.879 283.676V285.912L411.916 282.003C409.076 281.743 406.384 280.366 403.672 279.899L377.739 275.426C371.908 274.42 366.237 274.476 360.449 273.945C352.197 273.186 344.414 271.657 336.102 272.276L294.987 275.339L251.187 277.571L244.341 278.086L237.486 278.637L230.218 279.36C221.224 280.254 212.681 281.763 203.608 282.147L170.383 283.56L129.551 285.102L107.067 286.18L98.1776 286.715C96.5088 286.815 95.0312 287.054 93.6053 286.699C98.1617 286.024 102.236 285.677 106.657 285.269L118.61 284.179C117.196 283.161 115.858 283.5 114.316 283.664L109.131 284.219C106.104 284.543 103.188 284.718 100.46 284.487L126.56 280.809L149.887 277.834L157.949 277.211C160.059 277.048 162.131 276.704 164.142 276.353C161.314 276.065 158.813 276.341 156.069 276.572L148.66 277.191L141.201 277.814C139.054 277.994 137.465 278.018 134.756 277.918L138.831 276.157L130.698 276.8L109.724 278.856C106.335 279.188 102.957 278.453 99.5716 279.699C96.8553 280.701 94.1271 280.398 91.2395 280.502L73.9299 281.109L64.6698 281.2C63.2081 281.216 61.1689 281.688 59.6833 282.123L82.7042 282.354C77.1999 283.736 71.7593 283.744 66.0001 284.662L57.4767 286.02C56.0549 284.926 54.6848 284.914 52.2592 285.106L55.8756 283.464L52.2712 282.53L55.4614 281.252C53.9758 281.156 52.0959 280.941 50.4908 280.969L34.408 281.268C30.8831 281.332 27.4579 281.711 24.4508 283.504C26.5577 283.856 28.2743 282.722 30.0228 282.634C34.8341 282.398 39.2033 282.346 43.8314 282.534L29.1705 285.197C31.1301 286.168 32.5121 285.657 34.2845 285.876C31.6877 286.543 29.764 287.322 27.7685 289.195C26.4343 289.738 23.5029 290.133 22.308 290.812L14.7923 295.076C21.9854 297.468 26.5418 296.282 34.0973 298.538C29.9153 304.26 7.26076 302.883 0.477936 303.05L0.521741 279.435L18.3889 279.172C32.1497 278.968 45.3091 277.714 59.1495 277.175L89.4233 275.997L105.363 273.645C110.469 272.891 114.766 273.074 119.641 271.345C126.436 268.93 138.098 269.696 145.693 266.817C142.109 265.587 131.359 268.187 130.375 266.737L142.017 265.548C144.861 265.256 148.266 265.827 151.09 265.14C154.344 264.35 157.65 262.752 160.96 262.864C170.22 263.18 182.889 260.364 192.034 257.977C197.036 256.671 194.161 260.448 212.454 255.11C214.505 254.511 216.246 253.924 217.723 256.06L207.782 257.817C204.576 258.384 201.21 258.967 198.072 259.813C194.248 260.844 190.791 261.762 186.785 261.954C182.563 262.157 178.596 262.936 174.418 263.607C170.937 264.166 167.165 263.427 164.066 264.881C174.689 266.654 169.873 264.382 182.029 264.685C183.71 264.729 186.111 264.497 187.513 264.038L192.217 262.501C194.053 261.902 195.873 261.487 197.614 261.534L195.571 263.886L202.959 264.058L219.508 263.783C230.349 263.603 240.852 264.977 251.578 263.783C253.422 263.579 254.545 263.615 256.393 264.19C257.95 264.673 260.515 264.581 262.308 264.965C263.224 265.16 264.729 266.055 265.785 265.955C268.166 265.731 270.114 265.735 271.512 266.498C265.566 268.051 260.025 265.488 254.25 268.602L275.869 269.225C292.765 269.712 309.214 267.86 325.942 266.222C330.729 265.755 335.23 265.456 340.097 265.324C341.997 265.272 344.749 266.226 346.804 266.043L349.337 267.153L368.606 266.047C370.518 265.939 372.88 266.558 374.581 266.546L387.605 266.458C396.944 266.394 406.097 266.162 415.317 267.66C417.612 268.031 420.252 269.489 422.14 268.49C423.908 266.075 425.167 268.974 429.309 268.514C431.249 268.303 432.519 268.415 434.029 269.161L427.537 269.836C419.268 270.695 416.456 268.55 410.861 270.367L421.614 272.08C418.946 272.108 416.787 272.112 414.461 272.479C428.361 276.96 441.302 277.103 454.883 278.573L454.879 278.577ZM223.921 268.027L214.557 266.462L206.591 266.442C206.352 268.267 213.115 267.472 217.007 267.8C219.763 268.031 221.722 268.267 223.921 268.027ZM174.501 269.808C170.148 269.589 166.293 268.782 162.82 271.381C167.173 272.12 171.048 271.05 174.501 269.808ZM233.225 278.058L261.049 275.458L274.025 274.604C263.777 273.35 251.876 276.544 241.724 275.818L257.329 273.566L256.118 272.711C254.951 271.889 260.272 272.631 259.93 271.441L247.284 271.182C246.675 271.988 246.201 272.751 246.914 272.1L248.782 273.458C250.327 274.584 224.857 276.293 222.937 275.91C222.053 275.69 220.257 275.143 219.396 275.171L204.202 275.714L188.788 276.065L173.283 276.341L180.137 276.96L194.252 278.273C210.59 279.795 216.931 279.575 233.221 278.054L233.225 278.058ZM276.518 274.264C283.664 274.276 289.718 274.165 296.258 273.558L302.921 272.939L310.476 272.14C307.907 271.877 305.219 271.865 302.451 272.048L293.709 272.639C291.315 272.799 288.467 273.55 286.225 273.334C285.161 273.23 283.313 272.495 282.337 272.747L276.514 274.264H276.518ZM141.316 275.386C146.836 275.091 151.158 274.189 155.73 273.146C154.348 272.436 153.097 272.895 151.807 273.21C149.23 272.252 146.562 272.048 144.259 273.59L149.314 273.366L141.316 275.39V275.386Z" fill="#D5F0F7"/>
<path d="M454.879 14.5269V19.031L442.477 18.6198C427.613 18.1286 413.258 17.0465 398.163 17.8651C403.48 20.3807 408.642 18.1486 414.186 19.7937C409.339 20.1731 404.695 20.217 399.569 21.1633C404.261 22.5689 408.73 22.4731 413.513 22.4371C421.435 22.3772 428.947 22.7885 436.399 24.6693C434.431 24.7411 432.631 24.5495 430.739 24.4616L412.844 23.6071C408.025 23.3755 403.644 22.529 398.398 23.2278L402.875 25.7873C406.253 27.72 420.264 26.7536 426.597 28.5226L424.633 29.4889L430.07 30.1198C431.277 30.2596 433.376 29.3012 434.607 29.2413C441.541 28.9019 448.228 29.1934 454.875 29.4051V31.5413C451.82 31.5453 448.897 31.4974 445.293 32.296C448.718 33.1226 451.705 33.2384 454.875 33.2664V34.9914L442.441 34.1608C442.883 35.5344 442.971 35.6303 443.357 35.75L445.623 36.4369C433.87 35.9776 422.22 34.9155 410.223 33.0427C408.798 32.8191 407.352 32.1722 406.193 31.186C413.931 32.1124 421.312 33.5099 428.963 33.7655L408.937 30.595C405.93 30.1198 403.488 29.4649 400.386 29.8802L396.331 27.9316C392.655 28.3948 389.847 27.4524 386.844 25.8392C382.961 23.7509 377.608 24.0783 372.721 22.7007C371.825 22.4491 370.148 23.5672 369.383 23.6271C366.838 23.8267 361.899 23.3276 359.78 21.9899C354.941 18.9312 349.983 20.9557 345.036 20.9757L322.66 21.0635L332.816 19.7937C328.666 18.5678 324.731 18.2244 320.358 18.5918L322.819 19.6979C316.204 22.4851 314.519 21.5227 307.601 22.1496C300.874 22.7566 297.445 22.6288 290.59 21.4189L308.397 21.0316C310.871 20.9797 313.133 20.3927 315.997 19.8975L313.476 18.2644L325.229 17.2461L332.613 17.0944C337.628 16.9906 342.463 16.8349 347.461 16.9067L372.143 17.2621L386.326 16.6711C391.58 16.4515 396.594 17.2222 401.831 16.5394C414.31 14.9142 416.046 16.2718 427.079 16.739C442.644 17.3979 440.947 15.9045 454.871 14.5309L454.879 14.5269ZM372.068 18.3762C367.802 18.4041 364.556 18.5958 360.708 19.4104C364.791 20.8838 368.555 19.7578 372.068 18.3762Z" fill="#D5F0F7"/>
<path d="M299.615 18.7516L291.347 20.1532L273.762 21.6306C269.445 21.994 265.339 21.982 260.818 21.6785L273.348 20.7242C275.59 20.5525 277.578 20.1452 279.725 19.686C284.472 18.6758 289.12 18.5959 293.832 17.937L289.487 17.2263C290.98 16.8948 290.733 16.6153 289.296 16.0244L270.803 15.5292C268.668 12.3427 262.483 13.8042 259.802 14.0278C265.558 18.1926 276.873 15.3535 284.584 17.1983C281.951 18.0648 279.406 17.6216 276.463 17.4539C271.472 17.1704 266.633 17.8013 261.587 17.4699L255.405 17.0665C252.088 16.8509 247.571 17.7374 244.568 17.2622C243.767 17.1344 242.21 16.1282 241.318 16.256C231.532 17.6575 222.487 17.1304 212.888 15.6849C210.881 15.3815 208.32 16.5075 207.197 14.6667L214.732 15.3016C226.291 16.2759 226.617 15.094 236.933 15.3855C241.302 15.5093 245.396 16.0323 249.387 14.7546C242.286 14.4711 236.08 14.1796 229.784 13.4408L236.973 11.2646C237.04 11.1927 236.65 11.6 235.702 12.5903C240.485 13.6565 245.918 12.6822 251.064 12.5304L260.288 12.2549L267.37 10.0747L264.681 8.50141L271.484 8.68908C271.166 6.06963 253.059 2.95902 249.861 2.52777C257.01 1.7052 263.132 3.84548 270.289 5.09931L268.238 5.86198C273.097 7.89446 285.177 7.45522 291.08 6.94012L298.086 8.92068L288.539 8.46547L293.191 10.2224L287.591 10.6776L285.432 12.4785L276.025 12.746L283.588 14.4151C284.711 13.7044 284.464 13.9919 283.281 15.062L289.467 14.2594L298.922 13.2092L296.763 12.3308L304.363 11.9834L299.149 10.9651C303.69 10.6696 307.354 10.7255 311.771 11.1448L306.071 11.7837C307.358 12.175 309.421 13.1014 310.405 13.0974L320.473 13.0495C323.23 13.0375 325.472 13.2731 327.882 12.3547L320.107 11.2127C323.003 10.5259 325.803 10.9132 328.678 10.478C332.486 9.90298 335.951 8.4495 339.52 9.15228L335.059 10.7775L340.639 11.7238L338.675 12.8019C338.301 13.0056 338.815 13.5526 339.213 14.2674L328.435 14.6667L327.674 12.8618L322.075 14.7306L324.042 15.5691C316.072 17.5936 307.88 17.3461 299.623 18.7436L299.615 18.7516ZM281.625 10.1146C278.57 7.06789 275.085 8.10609 272.05 8.18196C275.411 9.16825 278.494 9.85506 281.625 10.1146ZM311.799 15.4174L302.168 15.062L305.402 17.1105L311.799 15.4174Z" fill="#D5F0F7"/>
<path d="M307.382 248.513C301.535 250.422 295.381 250.026 289.391 250.733L269.035 253.133C266.466 253.437 263.976 253.668 261.527 254.127L252.621 255.8C251.546 255.944 250.69 255.936 251.841 255.273C254.68 254.698 257.496 253.9 259.679 252.83L253.506 252.175L265.546 250.765L265.992 251.839C266.446 252.933 269.521 250.358 270.931 250.558C275.101 251.141 279.832 250.418 283.887 248.845L290.092 248.741C291.98 248.709 294.047 247.615 295.76 247.295L310.504 244.544C328.196 241.246 345.964 239.129 364.134 239.764L398.032 240.954L403.755 241.038C406.057 241.074 408.726 242.224 411.398 243.298C407.503 246.481 386.485 244.999 380.208 244.8L364.918 244.312C358.888 244.121 352.85 243.785 346.864 244.209L332.103 245.259L327.519 245.49C314.499 246.153 320.629 247.379 309.696 249.004L311.707 247.096L307.378 248.509L307.382 248.513Z" fill="#D5F0F7"/>
<path d="M43.226 8.39357L29.8834 9.73125L31.851 11.3005L17.6361 11.5641C20.1493 9.00052 22.7023 11.4004 25.9205 9.86303L21.5114 9.29601C16.7439 7.96232 10.3992 9.16424 8.91362 7.4552L0.493887 6.92013C5.0463 6.55676 8.81804 5.63436 12.6018 6.50086C12.9323 6.57673 12.6854 5.21908 12.5341 4.91561L5.31713 3.96525C7.70685 2.83521 10.4869 3.23053 13.1952 3.89338C17.2139 4.87967 21.0096 4.67203 25.1518 4.48435C32.536 4.14494 39.5578 4.03314 46.7986 3.06282C43.8872 1.60136 40.6651 3.08279 37.7098 2.58764C35.336 2.18834 33.1335 1.72115 30.7398 1.74511C24.869 1.809 19.289 1.75309 13.5218 1.42167C9.80581 1.21004 6.49602 0.9984 2.83577 2.24025C2.2702 2.43191 0.864272 2.45188 0.521746 2.04459C0.179219 1.63729 0.696994 -0.259417 1.27053 -0.211501C3.71601 -0.011847 8.92159 -0.27539 11.3511 0.187807C22.4594 2.32011 13.6254 -1.39345 25.809 -0.48303L20.7706 0.507254C25.8289 2.70344 33.8345 -0.383201 34.8859 -0.30334L44.632 0.427394L43.0468 1.4057L52.4742 1.84094L46.5796 4.32064L58.9584 4.5762C61.6747 4.6321 65.5779 5.53453 68.0831 4.41647C73.0298 2.2123 77.407 2.32011 82.6325 2.62358C86.48 2.8472 89.0609 3.4222 92.5777 5.23505C95.6246 6.80433 100.038 6.1894 103.586 7.57499C103.128 7.71874 101.348 7.91041 100.583 7.73472C96.0508 6.67256 91.4068 7.43524 86.9619 7.36336C82.8237 7.29548 78.7492 6.84027 74.5433 7.00398C68.7921 7.2276 63.1045 7.01996 57.4409 7.55103C38.1041 9.36389 51.9446 3.77359 38.6736 7.23558L43.23 8.39357H43.226Z" fill="#D5F0F7"/>
<path d="M78.5302 307.543C69.1027 308.497 60.2568 309.028 51.0802 308.812L38.2196 308.509C37.9727 308.505 37.0765 308.301 36.8893 308.197C31.612 305.322 71.9306 303.494 73.9101 303.39C84.2097 302.847 93.7447 302.1 104.128 304.057C102.236 304.735 100.189 305.35 98.2015 305.554L78.5302 307.543Z" fill="#D5F0F7"/>
<path d="M282.218 50.0333L279.565 47.8052C266.856 45.8965 254.668 46.2759 242.381 43.3569C253.235 42.5543 262.523 44.8982 273.579 44.3272L266.494 42.0751C271.424 41.8875 276.682 42.2628 281.401 43.8241C291.088 47.0305 292.669 44.0118 303.024 48.9472C296.361 48.468 290.188 46.6592 283.174 47.0944C286.304 48.6278 297.715 49.7338 300.193 51.0595C300.452 51.1993 300.037 52.3613 299.575 52.3014L282.214 50.0333H282.218Z" fill="#D5F0F7"/>
<path d="M12.9124 274.803L0.629291 275.322L0.565552 271.25L13.4701 270.511C21.2048 270.068 28.8599 269.493 36.4751 271.629C28.3142 273.266 20.7348 274.48 12.9124 274.807V274.803Z" fill="#D5F0F7"/>
<path d="M408.284 6.60065C399.075 8.30569 402.23 4.08501 396.925 4.11296C394.324 4.12494 391.898 4.24872 389.64 3.98119L383.204 3.21851L398.127 2.50375C400.457 2.39195 403.851 3.35827 405.938 2.79924C408.3 2.16833 409.929 1.61729 412.255 1.94073C415.059 2.32806 417.285 2.33604 419.758 3.63778C415.608 4.53623 412.107 4.39248 407.854 4.50827L414.342 5.47859L408.284 6.60065Z" fill="#D5F0F7"/>
<path d="M350.381 39.1442C346.673 40.374 340.543 40.4419 336.652 39.1681C335.887 38.9166 334.736 37.7186 333.991 37.531L316.59 33.1586L304.705 29.4929C308.011 27.9915 310.843 30.2516 313.965 31.0542C320.708 32.7912 327.316 33.9891 333.932 36.4049L350.377 39.1442H350.381Z" fill="#D5F0F7"/>
<path d="M302.315 32.8153L291.243 33.53C285.277 33.9174 279.585 34.121 273.938 33.8455C277.777 33.3424 280.748 33.0628 284.54 31.9967C287.734 31.845 300.659 30.0641 302.319 32.8153H302.315Z" fill="#D5F0F7"/>
<path d="M70.903 0.726827C66.6254 2.83916 60.9856 1.57336 56.6562 1.50947C69.3258 -0.379254 71.2017 -2.56746 83.8513 -1.69697C74.7345 0.515195 77.646 -2.5994 70.907 0.726827H70.903Z" fill="#D5F0F7"/>
<path d="M367.22 0.407489C363.281 1.81704 359.713 0.994471 356.064 0.347593L358.637 -1.45728L367.22 0.407489Z" fill="#D5F0F7"/>
<path d="M454.676 0.886418V2.68729L450.896 2.87497L454.226 3.75744C444.711 4.27254 445.241 3.21837 434.957 3.56976C426.991 3.84129 431.958 4.83157 422.387 3.48192C420.603 3.23035 418.826 3.86924 416.895 3.64164L410.331 2.86299C406.28 2.38382 402.401 4.04494 398.378 3.56577L386.947 2.21212C388.963 0.678778 398.119 2.84302 402.102 0.714716C395.335 0.0638447 388.975 0.183637 381.913 0.371311L385.087 -0.84258C380.945 -2.00456 377.456 -4.3869e-05 373.8 0.874439C369.865 -0.98234 358.948 -1.66516 353.953 -1.59328C353.085 -1.5813 351.898 -2.07644 351.488 -2.60752L362.063 -2.14432C371.876 -1.71307 372.243 -0.167751 380.061 -1.89675L375.744 -2.65943C373.716 -5.5025 385.597 -4.5801 386.776 -3.81742L384.068 -2.52766L395.403 -0.80265C401.66 0.147701 407.463 0.207596 413.892 -0.295531C419.276 -0.718797 424.307 0.738676 429.5 -0.147787L415.612 -1.84484C419.969 -3.50995 424.641 -0.758728 432.368 -2.06446L432.802 -0.778693C432.882 -0.539108 433.981 -0.247614 434.292 -0.223656L445.233 0.586937C447.567 0.75864 445.416 2.06038 454.676 0.886418Z" fill="#D5F0F7"/>
<path d="M195.423 5.52638C185.335 6.58854 180.611 4.36839 170.973 5.94166C164.759 3.37411 161.565 6.27708 156.997 4.15676L166.34 3.52186C167.348 3.45398 169.467 4.10884 170.463 4.27255C175.465 3.15449 180.348 3.1505 185.426 3.95311L195.423 5.52638Z" fill="#D5F0F7"/>
<path d="M234.364 14.6547C231.381 14.9821 228.489 14.8903 225.574 14.6028C227.585 14.2913 229.64 13.9798 231.771 13.7922L239.195 13.1333L244.847 12.5663C247.32 12.3187 249.917 12.4146 252.207 12.7061L234.364 14.6507V14.6547Z" fill="#D5F0F7"/>
<path d="M121 11.2165L115.025 10.2662C119.821 8.99637 124.835 8.60106 129.985 10.362L121 11.2165Z" fill="#D5F0F7"/>
<path d="M228.362 8.96047C224.837 9.27992 221.571 9.39572 218.385 9.35579L212.597 8.28564L234.957 8.36151L228.362 8.96047Z" fill="#D5F0F7"/>
<path d="M119.104 0.698882C121.505 1.20201 123.417 0.910513 125.102 1.87284C119.697 2.26017 114.487 1.95271 109.732 -1.26172L119.104 0.698882Z" fill="#D5F0F7"/>
<path d="M146.888 8.9486C142.905 9.1802 139.452 9.58749 136.023 9.1203L145.454 8.30172C148.019 8.07811 152.173 7.49912 154.348 7.17168C154.535 7.14373 155.097 7.87047 155.244 7.98627C155.467 8.16197 154.296 8.51735 153.974 8.53731L146.888 8.95259V8.9486Z" fill="#D5F0F7"/>
<path d="M9.51105 0.195661L0.457998 1.09011C0.358426 0.379342 0.226984 -0.894449 0.649168 -0.906428L2.61673 -0.954346L9.51105 0.195661Z" fill="#D5F0F7"/>
<path d="M176.425 8.93649C174.649 9.60333 172.665 9.08423 170.638 8.96444L162.585 8.48128C167.336 8.0101 171.666 7.7186 176.425 8.93649Z" fill="#D5F0F7"/>
<path d="M139.719 2.7274L132.351 2.51976C134.474 1.23798 137.046 1.30986 139.811 1.53347L141.081 1.63729C141.296 1.65326 139.958 2.73139 139.719 2.72341V2.7274Z" fill="#D5F0F7"/>
<path d="M102.049 9.55954L95.8596 10.4899C94.5373 10.6896 91.9206 9.94687 90.2398 9.28003L102.049 9.55954Z" fill="#D5F0F7"/>
</g>
<path d="M115.419 179.313C117.71 179.313 119.653 179.889 121.254 181.035C122.856 182.181 124.098 184.149 124.982 186.936C125.867 189.723 126.372 193.573 126.504 198.492L126.699 206.163H117.578L117.383 198.983C117.315 196.032 117.22 193.724 117.088 192.051C116.957 190.378 116.762 189.184 116.499 188.462C116.236 187.743 115.878 187.379 115.419 187.379C115.029 187.379 114.699 187.775 114.44 188.561C114.177 189.348 113.95 190.774 113.755 192.838C113.56 194.902 113.428 197.901 113.36 201.834C113.293 205.768 113.261 210.883 113.261 217.176C113.261 223.469 113.293 228.584 113.36 232.517C113.424 236.45 113.556 239.449 113.755 241.514C113.95 243.578 114.181 245.004 114.44 245.79C114.699 246.577 115.029 246.972 115.419 246.972C115.878 246.972 116.22 246.613 116.451 245.89C116.678 245.171 116.877 243.957 117.041 242.252C117.204 240.547 117.319 238.255 117.383 235.368L117.578 229.175H126.699L126.504 235.863C126.372 240.779 125.867 244.632 124.982 247.419C124.098 250.207 122.856 252.175 121.254 253.321C119.653 254.467 117.706 255.042 115.419 255.042C113.46 255.042 111.707 254.599 110.174 253.716C108.637 252.83 107.346 251.097 106.299 248.505C105.251 245.918 104.467 242.113 103.945 237.097C103.419 232.082 103.16 225.445 103.16 217.184C103.16 208.922 103.419 202.286 103.945 197.27C104.467 192.255 105.251 188.454 106.299 185.862C107.342 183.275 108.637 181.534 110.174 180.651C111.711 179.765 113.46 179.325 115.419 179.325V179.313Z" fill="#393A2B"/>
<path d="M132.386 179.804H146.315L151.612 254.539H141.802L139.938 199.179L138.859 182.264H139.643L138.564 199.179L136.505 254.539H127.089L132.386 179.804ZM133.076 241.457V232.609H146.319V241.457H133.076Z" fill="#393A2B"/>
<path d="M162.891 179.313C165.114 179.313 167.041 179.82 168.678 180.838C170.311 181.857 171.606 183.674 172.554 186.297C173.502 188.92 173.976 192.658 173.976 197.506V204.194H165.15V198.001C165.15 195.445 165.066 193.381 164.903 191.807C164.739 190.234 164.508 189.104 164.218 188.413C163.923 187.726 163.549 187.379 163.09 187.379C162.632 187.379 162.222 187.854 161.864 188.805C161.505 189.755 161.326 190.985 161.326 192.49C161.326 196.032 161.752 199.39 162.601 202.569C163.449 205.747 164.528 208.846 165.839 211.861C167.145 214.875 168.439 217.926 169.714 221.005C170.989 224.087 172.052 227.282 172.9 230.592C173.749 233.902 174.175 237.428 174.175 241.162C174.175 243.59 173.78 245.866 172.996 247.994C172.211 250.126 171.016 251.827 169.415 253.109C167.814 254.387 165.771 255.026 163.286 255.026C161.127 255.026 159.215 254.519 157.546 253.5C155.877 252.486 154.571 250.649 153.623 247.994C152.675 245.339 152.201 241.621 152.201 236.833V231.131H161.027V236.342C161.027 238.898 161.107 240.95 161.274 242.487C161.438 244.029 161.681 245.159 162.011 245.882C162.338 246.604 162.696 246.964 163.09 246.964C163.549 246.964 163.891 246.704 164.118 246.177C164.345 245.654 164.524 244.983 164.656 244.161C164.787 243.342 164.851 242.507 164.851 241.653C164.851 238.443 164.425 235.344 163.576 232.361C162.728 229.378 161.665 226.411 160.39 223.461C159.116 220.51 157.821 217.463 156.515 214.316C155.204 211.17 154.125 207.844 153.277 204.334C152.424 200.828 152.002 197.042 152.002 192.977C152.002 188.912 153.014 185.866 155.041 183.242C157.068 180.623 159.681 179.309 162.887 179.309L162.891 179.313Z" fill="#393A2B"/>
<path d="M179.858 179.804H193.786L199.084 254.539H189.274L187.41 199.179L186.33 182.264H187.115L186.036 199.179L183.977 254.539H174.561L179.858 179.804ZM180.543 241.457V232.609H193.786V241.457H180.543Z" fill="#393A2B"/>
<path d="M201.139 217.171C201.139 208.91 201.398 202.273 201.923 197.258C202.445 192.243 203.23 188.441 204.277 185.85C205.321 183.262 206.615 181.521 208.153 180.639C209.69 179.752 211.438 179.313 213.398 179.313C215.358 179.313 217.11 179.756 218.643 180.639C220.181 181.525 221.471 183.262 222.519 185.85C223.562 188.441 224.347 192.243 224.873 197.258C225.394 202.273 225.657 208.91 225.657 217.171C225.657 225.433 225.394 232.07 224.873 237.085C224.347 242.1 223.562 245.901 222.519 248.493C221.471 251.085 220.181 252.822 218.643 253.704C217.106 254.59 215.358 255.03 213.398 255.03C211.438 255.03 209.686 254.586 208.153 253.704C206.615 252.818 205.325 251.085 204.277 248.493C203.23 245.905 202.445 242.1 201.923 237.085C201.398 232.07 201.139 225.433 201.139 217.171ZM215.557 217.171C215.557 210.878 215.525 205.763 215.457 201.83C215.389 197.897 215.278 194.898 215.115 192.834C214.951 190.769 214.724 189.344 214.43 188.557C214.135 187.77 213.792 187.375 213.398 187.375C213.004 187.375 212.677 187.77 212.418 188.557C212.155 189.344 211.928 190.769 211.733 192.834C211.538 194.898 211.407 197.897 211.339 201.83C211.271 205.763 211.239 210.878 211.239 217.171C211.239 223.464 211.271 228.58 211.339 232.513C211.403 236.446 211.534 239.445 211.733 241.509C211.928 243.574 212.159 244.999 212.418 245.786C212.677 246.572 213.008 246.968 213.398 246.968C213.788 246.968 214.135 246.576 214.43 245.786C214.724 244.999 214.951 243.574 215.115 241.509C215.278 239.445 215.393 236.446 215.457 232.513C215.521 228.58 215.557 223.464 215.557 217.171Z" fill="#393A2B"/>
<path d="M229.091 179.804H237.331L238.801 184.524V254.539H229.091V179.804ZM237.331 220.514H234.388V212.647H238.801C239.781 212.647 240.581 212.368 241.202 211.813C241.824 211.258 242.298 210.108 242.624 208.371C242.951 206.634 243.114 204.062 243.114 200.652C243.114 197.242 242.951 194.491 242.624 192.786C242.298 191.081 241.824 189.967 241.202 189.443C240.581 188.92 239.781 188.657 238.801 188.657H234.388V179.808H237.331C241.059 179.808 244.066 180.495 246.356 181.873C248.642 183.25 250.311 185.462 251.359 188.509C252.402 191.556 252.928 195.605 252.928 200.652C252.928 205.24 252.39 208.798 251.311 211.322C250.232 213.845 248.646 215.862 246.555 217.371H243.417V219.731C241.652 220.258 239.625 220.518 237.335 220.518L237.331 220.514ZM239.585 216.185H248.021L252.924 254.535H243.608L239.585 216.185Z" fill="#393A2B"/>
<path d="M256.063 254.539V179.804H265.968V245.686H274.499V254.535H256.059L256.063 254.539Z" fill="#393A2B"/>
<path d="M280.78 179.804H294.708L300.006 254.539H290.196L288.332 199.179L287.252 182.264H288.037L286.958 199.179L284.898 254.539H275.483L280.78 179.804ZM281.465 241.457V232.609H294.708V241.457H281.465Z" fill="#393A2B"/>
<path d="M303.925 254.539V242.739H314.81V254.539H303.925Z" fill="#393A2B"/>
<path d="M110.656 260.241C110.839 260.241 111.038 260.241 111.253 260.249C111.465 260.253 111.676 260.265 111.887 260.285C112.094 260.305 112.289 260.337 112.472 260.376C112.651 260.416 112.807 260.476 112.934 260.556C113.217 260.724 113.452 260.959 113.651 261.255C113.846 261.554 113.946 261.918 113.946 262.353C113.946 262.812 113.834 263.208 113.615 263.543C113.396 263.878 113.082 264.126 112.671 264.286V264.31C113.201 264.421 113.607 264.665 113.886 265.032C114.169 265.404 114.308 265.855 114.308 266.386C114.308 266.702 114.253 267.005 114.141 267.304C114.029 267.604 113.862 267.867 113.643 268.095C113.424 268.323 113.149 268.51 112.823 268.65C112.496 268.79 112.122 268.862 111.696 268.862H107.541V260.245H110.66L110.656 260.241ZM110.967 263.946C111.616 263.946 112.086 263.83 112.369 263.603C112.651 263.375 112.795 263.028 112.795 262.573C112.795 262.265 112.747 262.026 112.651 261.85C112.556 261.674 112.424 261.534 112.253 261.439C112.086 261.343 111.891 261.279 111.668 261.251C111.449 261.223 111.214 261.207 110.963 261.207H108.677V263.946H110.963H110.967ZM111.544 267.891C112.05 267.891 112.444 267.756 112.731 267.48C113.014 267.209 113.157 266.829 113.157 266.346C113.157 266.063 113.105 265.831 113.002 265.647C112.898 265.464 112.759 265.316 112.588 265.208C112.416 265.1 112.217 265.024 111.99 264.98C111.767 264.937 111.532 264.913 111.293 264.913H108.68V267.895H111.544V267.891Z" fill="#393A2B"/>
<path d="M120.717 260.241L124.074 268.858H122.812L121.872 266.262H118.235L117.272 268.858H116.105L119.45 260.241H120.713H120.717ZM121.513 265.3L120.079 261.283H120.056L118.598 265.3H121.509H121.513Z" fill="#393A2B"/>
<path d="M127.4 260.241V264.537L131.757 260.241H133.239L129.614 263.715L133.382 268.858H131.936L128.83 264.501L127.396 265.839V268.858H126.253V260.241H127.396H127.4Z" fill="#393A2B"/>
<path d="M141.555 260.241V261.207H136.764V263.946H141.228V264.913H136.764V267.895H141.591V268.862H135.621V260.245H141.555V260.241Z" fill="#393A2B"/>
<path d="M148.358 260.241C149.178 260.241 149.816 260.44 150.278 260.844C150.74 261.247 150.971 261.798 150.971 262.497C150.971 263.02 150.851 263.479 150.616 263.874C150.381 264.27 149.999 264.537 149.477 264.681V264.705C149.724 264.753 149.927 264.833 150.086 264.945C150.242 265.056 150.369 265.192 150.461 265.348C150.552 265.504 150.62 265.679 150.664 265.871C150.708 266.063 150.744 266.266 150.767 266.474C150.783 266.682 150.795 266.897 150.803 267.113C150.811 267.328 150.831 267.544 150.863 267.752C150.895 267.959 150.943 268.159 151.002 268.351C151.062 268.538 151.154 268.706 151.273 268.85H149.999C149.919 268.762 149.863 268.642 149.835 268.486C149.808 268.335 149.788 268.163 149.78 267.975C149.772 267.788 149.764 267.584 149.756 267.364C149.748 267.149 149.724 266.933 149.684 266.725C149.652 266.518 149.612 266.318 149.565 266.127C149.517 265.939 149.441 265.771 149.338 265.631C149.234 265.492 149.099 265.38 148.927 265.292C148.756 265.204 148.533 265.164 148.254 265.164H145.462V268.846H144.319V260.229H148.366L148.358 260.241ZM148.597 264.15C148.836 264.11 149.047 264.03 149.23 263.914C149.409 263.799 149.557 263.643 149.664 263.443C149.772 263.248 149.828 262.992 149.828 262.677C149.828 262.241 149.708 261.89 149.465 261.614C149.226 261.343 148.836 261.203 148.298 261.203H145.458V264.21H147.84C148.107 264.21 148.358 264.19 148.597 264.15Z" fill="#393A2B"/>
<path d="M157.001 268.858H155.858V265.332L152.536 260.241H153.898L156.475 264.346L158.992 260.241H160.29L157.005 265.332V268.858H157.001Z" fill="#393A2B"/>
<path d="M170.789 268.69C170.343 268.89 169.885 268.993 169.411 268.993C168.834 268.993 168.368 268.906 168.013 268.726C167.659 268.546 167.388 268.335 167.193 268.087C167.002 267.839 166.874 267.58 166.814 267.316C166.755 267.049 166.723 266.829 166.723 266.654C166.723 266.314 166.779 266.019 166.886 265.759C166.994 265.504 167.137 265.272 167.32 265.064C167.499 264.861 167.715 264.673 167.958 264.509C168.2 264.346 168.459 264.19 168.734 264.046C168.615 263.878 168.499 263.715 168.384 263.563C168.272 263.411 168.169 263.255 168.077 263.1C167.985 262.944 167.914 262.776 167.862 262.605C167.81 262.433 167.782 262.237 167.782 262.018C167.782 261.786 167.826 261.562 167.91 261.347C167.993 261.135 168.117 260.943 168.284 260.78C168.447 260.616 168.651 260.484 168.893 260.388C169.136 260.293 169.411 260.245 169.726 260.245C169.993 260.245 170.248 260.281 170.503 260.352C170.757 260.424 170.977 260.536 171.172 260.684C171.363 260.832 171.518 261.019 171.634 261.239C171.749 261.459 171.809 261.714 171.809 262.006C171.809 262.265 171.765 262.501 171.678 262.724C171.59 262.944 171.47 263.148 171.315 263.335C171.164 263.519 170.988 263.687 170.797 263.834C170.606 263.982 170.403 264.118 170.196 264.238L171.749 266.134C171.909 265.683 172 265.236 172.028 264.797H173.004C172.98 265.056 172.952 265.272 172.924 265.456C172.896 265.635 172.86 265.803 172.817 265.955C172.773 266.106 172.717 266.258 172.653 266.406C172.59 266.554 172.514 266.725 172.426 266.917L174.099 268.862H172.765L171.849 267.788C171.59 268.191 171.239 268.49 170.797 268.694L170.789 268.69ZM168.73 265.044C168.551 265.164 168.392 265.304 168.256 265.456C168.121 265.607 168.009 265.779 167.93 265.967C167.85 266.154 167.81 266.378 167.81 266.638C167.81 266.853 167.858 267.053 167.95 267.236C168.041 267.416 168.165 267.572 168.316 267.696C168.467 267.819 168.643 267.919 168.838 267.991C169.033 268.063 169.236 268.099 169.447 268.099C169.841 268.099 170.192 268.007 170.499 267.823C170.805 267.64 171.068 267.388 171.275 267.077L169.3 264.701C169.101 264.813 168.909 264.928 168.726 265.052L168.73 265.044ZM170.025 263.295C170.16 263.199 170.284 263.092 170.399 262.968C170.515 262.844 170.602 262.712 170.678 262.565C170.753 262.417 170.785 262.249 170.785 262.065C170.785 261.818 170.698 261.602 170.518 261.419C170.343 261.239 170.1 261.147 169.798 261.147C169.559 261.147 169.332 261.223 169.124 261.371C168.917 261.518 168.81 261.75 168.81 262.065C168.81 262.193 168.834 262.325 168.889 262.453C168.941 262.581 169.009 262.708 169.089 262.832C169.168 262.956 169.256 263.08 169.356 263.199C169.451 263.319 169.547 263.439 169.646 263.563C169.766 263.483 169.893 263.395 170.033 263.295H170.025Z" fill="#393A2B"/>
<path d="M185.175 261.419C184.793 261.139 184.307 261.003 183.714 261.003C183.475 261.003 183.236 261.027 183.005 261.075C182.774 261.123 182.567 261.203 182.383 261.315C182.204 261.427 182.057 261.578 181.949 261.766C181.842 261.954 181.786 262.189 181.786 262.473C181.786 262.74 181.866 262.952 182.021 263.12C182.176 263.283 182.387 263.419 182.646 263.523C182.905 263.627 183.204 263.715 183.531 263.783C183.861 263.85 184.196 263.926 184.534 264.006C184.873 264.086 185.211 264.182 185.538 264.29C185.868 264.398 186.163 264.545 186.422 264.729C186.685 264.913 186.892 265.148 187.047 265.428C187.203 265.711 187.282 266.063 187.282 266.49C187.282 266.949 187.179 267.34 186.976 267.668C186.773 267.995 186.51 268.259 186.187 268.462C185.864 268.666 185.506 268.818 185.108 268.91C184.709 269.002 184.315 269.049 183.921 269.049C183.439 269.049 182.985 268.99 182.555 268.87C182.125 268.75 181.75 268.566 181.424 268.319C181.097 268.075 180.842 267.76 180.655 267.376C180.468 266.993 180.372 266.542 180.372 266.019H181.455C181.455 266.382 181.527 266.694 181.667 266.953C181.806 267.213 181.993 267.428 182.22 267.6C182.447 267.768 182.714 267.895 183.021 267.975C183.327 268.055 183.638 268.095 183.961 268.095C184.216 268.095 184.474 268.071 184.737 268.023C185 267.975 185.231 267.891 185.442 267.776C185.649 267.66 185.821 267.5 185.948 267.301C186.076 267.101 186.139 266.841 186.139 266.53C186.139 266.23 186.06 265.991 185.904 265.807C185.749 265.623 185.538 265.472 185.279 265.356C185.016 265.24 184.721 265.144 184.395 265.072C184.064 265 183.73 264.925 183.391 264.849C183.053 264.773 182.714 264.685 182.387 264.581C182.057 264.481 181.762 264.35 181.503 264.182C181.24 264.018 181.033 263.803 180.878 263.543C180.723 263.283 180.643 262.952 180.643 262.561C180.643 262.125 180.731 261.75 180.91 261.431C181.085 261.111 181.32 260.852 181.615 260.648C181.91 260.444 182.24 260.289 182.614 260.189C182.989 260.089 183.371 260.037 183.765 260.037C184.208 260.037 184.618 260.089 184.992 260.193C185.371 260.297 185.701 260.464 185.984 260.688C186.267 260.912 186.494 261.195 186.657 261.539C186.82 261.882 186.912 262.289 186.928 262.764H185.845C185.781 262.145 185.558 261.698 185.175 261.419Z" fill="#393A2B"/>
<path d="M193.774 260.241C194.643 260.241 195.296 260.464 195.742 260.912C196.188 261.359 196.411 261.986 196.411 262.788C196.411 263.591 196.188 264.222 195.742 264.669C195.296 265.12 194.639 265.34 193.774 265.332H191.15V268.858H190.007V260.241H193.774ZM193.392 264.37C194.041 264.378 194.519 264.246 194.818 263.97C195.121 263.695 195.268 263.303 195.268 262.788C195.268 262.273 195.117 261.882 194.818 261.61C194.519 261.339 194.041 261.207 193.392 261.207H191.154V264.37H193.392Z" fill="#393A2B"/>
<path d="M205.078 260.241V261.207H200.286V263.946H204.751V264.913H200.286V267.895H205.114V268.862H199.143V260.245H205.078V260.241Z" fill="#393A2B"/>
<path d="M213.032 261.463C212.593 261.155 212.076 261.003 211.474 261.003C210.961 261.003 210.522 261.099 210.156 261.295C209.79 261.487 209.491 261.746 209.252 262.074C209.017 262.401 208.842 262.772 208.726 263.192C208.615 263.611 208.559 264.046 208.559 264.493C208.559 264.985 208.615 265.448 208.726 265.887C208.838 266.326 209.013 266.71 209.252 267.033C209.487 267.36 209.79 267.62 210.16 267.812C210.53 268.003 210.972 268.103 211.486 268.103C211.865 268.103 212.199 268.039 212.49 267.915C212.785 267.792 213.036 267.616 213.247 267.396C213.458 267.177 213.625 266.913 213.745 266.606C213.864 266.298 213.936 265.971 213.96 265.615H215.103C214.991 266.702 214.617 267.548 213.983 268.151C213.35 268.754 212.482 269.058 211.383 269.058C210.718 269.058 210.136 268.942 209.638 268.714C209.14 268.487 208.726 268.171 208.4 267.768C208.069 267.364 207.822 266.889 207.659 266.342C207.495 265.795 207.412 265.208 207.412 264.581C207.412 263.954 207.499 263.363 207.679 262.812C207.854 262.261 208.113 261.782 208.455 261.371C208.798 260.96 209.22 260.636 209.73 260.401C210.24 260.165 210.825 260.045 211.482 260.045C211.932 260.045 212.358 260.105 212.757 260.225C213.155 260.345 213.513 260.524 213.828 260.756C214.143 260.988 214.402 261.279 214.609 261.63C214.816 261.982 214.955 262.385 215.019 262.844H213.876C213.749 262.233 213.466 261.774 213.028 261.467L213.032 261.463Z" fill="#393A2B"/>
<path d="M219.054 260.241V268.858H217.911V260.241H219.054Z" fill="#393A2B"/>
<path d="M225.916 260.241L229.274 268.858H228.011L227.071 266.262H223.435L222.471 268.858H221.304L224.65 260.241H225.912H225.916ZM226.709 265.3L225.275 261.283H225.251L223.793 265.3H226.705H226.709Z" fill="#393A2B"/>
<path d="M232.595 260.241V267.891H237.144V268.858H231.448V260.241H232.592H232.595Z" fill="#393A2B"/>
<path d="M237.463 261.207V260.241H244.337V261.207H241.473V268.858H240.33V261.207H237.467H237.463Z" fill="#393A2B"/>
<path d="M250.172 268.858H249.029V265.332L245.707 260.241H247.069L249.646 264.346L252.163 260.241H253.462L250.176 265.332V268.858H250.172Z" fill="#393A2B"/>
<path d="M265.633 261.463C265.195 261.155 264.677 261.003 264.076 261.003C263.562 261.003 263.124 261.099 262.758 261.295C262.391 261.487 262.093 261.746 261.854 262.074C261.619 262.401 261.443 262.772 261.328 263.192C261.216 263.611 261.161 264.046 261.161 264.493C261.161 264.985 261.216 265.448 261.328 265.887C261.439 266.326 261.615 266.71 261.854 267.033C262.089 267.36 262.391 267.62 262.762 267.812C263.132 268.003 263.574 268.103 264.088 268.103C264.466 268.103 264.801 268.039 265.092 267.915C265.386 267.792 265.637 267.616 265.848 267.396C266.059 267.177 266.227 266.913 266.346 266.606C266.466 266.298 266.537 265.971 266.561 265.615H267.704C267.593 266.702 267.218 267.548 266.585 268.151C265.952 268.754 265.084 269.058 263.984 269.058C263.319 269.058 262.738 268.942 262.24 268.714C261.742 268.487 261.328 268.171 261.001 267.768C260.671 267.364 260.424 266.889 260.26 266.342C260.097 265.795 260.013 265.208 260.013 264.581C260.013 263.954 260.101 263.363 260.28 262.812C260.456 262.261 260.714 261.782 261.057 261.371C261.4 260.96 261.822 260.636 262.331 260.401C262.841 260.165 263.427 260.045 264.084 260.045C264.534 260.045 264.96 260.105 265.358 260.225C265.757 260.345 266.115 260.524 266.43 260.756C266.745 260.988 267.003 261.279 267.211 261.63C267.418 261.982 267.557 262.385 267.621 262.844H266.478C266.35 262.233 266.067 261.774 265.629 261.467L265.633 261.463Z" fill="#393A2B"/>
<path d="M270.245 262.856C270.417 262.313 270.676 261.834 271.022 261.415C271.369 260.995 271.795 260.664 272.309 260.412C272.822 260.165 273.42 260.037 274.101 260.037C274.782 260.037 275.379 260.161 275.893 260.412C276.407 260.66 276.837 260.995 277.18 261.415C277.526 261.834 277.785 262.313 277.956 262.856C278.128 263.399 278.215 263.966 278.215 264.553C278.215 265.14 278.128 265.707 277.956 266.25C277.785 266.793 277.526 267.273 277.18 267.692C276.833 268.111 276.407 268.443 275.893 268.686C275.379 268.93 274.782 269.053 274.101 269.053C273.42 269.053 272.822 268.93 272.309 268.686C271.795 268.443 271.365 268.107 271.022 267.692C270.676 267.273 270.417 266.793 270.245 266.25C270.074 265.707 269.987 265.14 269.987 264.553C269.987 263.966 270.074 263.399 270.245 262.856ZM271.297 265.835C271.408 266.258 271.584 266.638 271.827 266.977C272.07 267.316 272.376 267.588 272.755 267.792C273.133 267.995 273.583 268.099 274.105 268.099C274.627 268.099 275.077 267.995 275.451 267.792C275.825 267.588 276.136 267.316 276.379 266.977C276.622 266.638 276.797 266.258 276.909 265.835C277.02 265.412 277.076 264.985 277.076 264.549C277.076 264.114 277.02 263.687 276.909 263.264C276.797 262.84 276.618 262.461 276.379 262.121C276.14 261.782 275.829 261.511 275.451 261.307C275.073 261.103 274.623 260.999 274.105 260.999C273.587 260.999 273.133 261.103 272.755 261.307C272.376 261.511 272.07 261.782 271.827 262.121C271.584 262.461 271.408 262.84 271.297 263.264C271.185 263.687 271.13 264.114 271.13 264.549C271.13 264.985 271.185 265.412 271.297 265.835Z" fill="#393A2B"/>
<path d="M286.599 260.241V261.207H282.098V263.946H286.045V264.913H282.098V268.858H280.955V260.241H286.599Z" fill="#393A2B"/>
<path d="M294.844 260.241V261.207H290.343V263.946H294.29V264.913H290.343V268.858H289.2V260.241H294.844Z" fill="#393A2B"/>
<path d="M303.379 260.241V261.207H298.588V263.946H303.052V264.913H298.588V267.895H303.415V268.862H297.445V260.245H303.379V260.241Z" fill="#393A2B"/>
<path d="M312.07 260.241V261.207H307.278V263.946H311.743V264.913H307.278V267.895H312.105V268.862H306.135V260.245H312.07V260.241Z" fill="#393A2B"/>
</svg>
