<svg width="629" height="219" viewBox="0 0 629 219" fill="none" xmlns="http://www.w3.org/2000/svg">
<path d="M36.4449 0C43.2431 0 49.0246 1.66097 53.7892 4.96654C58.5454 8.2803 62.2429 13.9587 64.8647 21.9935C67.4865 30.0365 68.9907 41.1478 69.3856 55.3438L69.9655 77.4846H42.8566L42.2767 56.7675C42.0835 48.2499 41.7894 41.5815 41.4028 36.7622C41.0079 31.9348 40.428 28.4901 39.6549 26.4037C38.8734 24.3254 37.8062 23.2781 36.4449 23.2781C35.2768 23.2781 34.3021 24.4154 33.529 26.6819C32.7475 28.9483 32.0752 33.0639 31.487 39.0287C30.9071 44.9852 30.5122 53.6419 30.3189 64.9987C30.1256 76.3473 30.0248 91.1078 30.0248 109.272C30.0248 127.436 30.1172 142.197 30.3189 153.545C30.5122 164.902 30.8987 173.551 31.487 179.515C32.0668 185.472 32.7475 189.588 33.529 191.862C34.3021 194.129 35.2768 195.266 36.4449 195.266C37.8062 195.266 38.823 194.227 39.5037 192.14C40.1843 190.062 40.7642 186.56 41.2516 181.643C41.7305 176.725 42.0751 170.106 42.2683 161.777L42.8482 143.899H69.9571L69.3772 163.2C68.9823 177.388 67.4865 188.508 64.8563 196.551C62.2345 204.594 58.537 210.272 53.7808 213.578C49.0162 216.891 43.2347 218.544 36.4365 218.544C30.6046 218.544 25.403 217.268 20.8401 214.715C16.2687 212.162 12.4368 207.146 9.32761 199.676C6.2184 192.206 3.8823 181.226 2.3277 166.751C0.773099 152.277 0 133.123 0 109.28C0 85.4376 0.773099 66.2833 2.3277 51.8091C3.8823 37.335 6.21 26.3628 9.32761 18.8843C12.4368 11.414 16.2687 6.39841 20.8401 3.84559C25.4114 1.27641 30.613 0 36.4449 0Z" fill="#393A2B"/>
<path d="M86.8644 1.41553H128.25L143.99 217.112H114.839L109.301 57.3239L106.091 8.50942H108.419L105.209 57.3239L99.0911 217.112H71.1083L86.8644 1.41553ZM88.9064 179.368V153.824H128.259V179.368H88.9064Z" fill="#393A2B"/>
<path d="M177.519 0C184.124 0 189.855 1.4646 194.72 4.40198C199.577 7.33935 203.417 12.5841 206.233 20.1525C209.048 27.721 210.459 38.505 210.459 52.5046V71.8062H184.224V53.9283C184.224 46.548 183.981 40.5914 183.493 36.0504C183.006 31.5093 182.325 28.2446 181.451 26.2564C180.577 24.2681 179.46 23.2781 178.098 23.2781C176.737 23.2781 175.519 24.6527 174.451 27.3937C173.384 30.1347 172.846 33.6857 172.846 38.0386C172.846 48.2581 174.107 57.9539 176.636 67.126C179.157 76.3064 182.367 85.2494 186.258 93.947C190.14 102.653 193.981 111.449 197.77 120.342C201.56 129.236 204.72 138.466 207.241 148.014C209.762 157.571 211.031 167.741 211.031 178.525C211.031 185.529 209.863 192.108 207.535 198.253C205.199 204.405 201.653 209.323 196.897 213.013C192.132 216.703 186.065 218.544 178.678 218.544C172.267 218.544 166.586 217.08 161.628 214.142C156.67 211.213 152.779 205.911 149.964 198.253C147.149 190.586 145.738 179.851 145.738 166.04V149.577H171.972V164.616C171.972 171.996 172.216 177.912 172.704 182.355C173.183 186.806 173.914 190.062 174.888 192.149C175.855 194.235 176.93 195.274 178.098 195.274C179.46 195.274 180.477 194.521 181.157 193.008C181.838 191.494 182.367 189.555 182.762 187.19C183.149 184.826 183.342 182.412 183.342 179.957C183.342 170.687 182.073 161.752 179.552 153.136C177.023 144.529 173.872 135.962 170.082 127.453C166.292 118.935 162.452 110.139 158.569 101.057C154.679 91.9751 151.477 82.3775 148.948 72.248C146.418 62.1268 145.158 51.2036 145.158 39.4705C145.158 27.7374 148.166 18.9416 154.191 11.3731C160.216 3.80468 167.989 0.0163642 177.51 0.0163642L177.519 0Z" fill="#393A2B"/>
<path d="M227.938 1.41553H269.333L285.072 217.112H255.921L250.383 57.3239L247.173 8.50942H249.509L246.299 57.3239L240.182 217.112H212.199L227.938 1.41553ZM229.98 179.368V153.824H269.333V179.368H229.98Z" fill="#393A2B"/>
<path d="M291.189 109.264C291.189 85.4212 291.962 66.2669 293.525 51.7928C295.08 37.3186 297.408 26.3464 300.525 18.8679C303.635 11.3977 307.466 6.38205 312.038 3.82923C316.601 1.27641 321.802 0 327.634 0C333.466 0 338.659 1.27641 343.231 3.82923C347.794 6.38205 351.634 11.3977 354.743 18.8679C357.852 26.3464 360.18 37.3186 361.735 51.7928C363.289 66.2669 364.071 85.4212 364.071 109.264C364.071 133.107 363.289 152.261 361.735 166.735C360.18 181.209 357.844 192.181 354.743 199.66C351.634 207.138 347.794 212.146 343.231 214.699C338.659 217.251 333.466 218.528 327.634 218.528C321.802 218.528 316.601 217.251 312.038 214.699C307.466 212.146 303.626 207.13 300.525 199.66C297.416 192.19 295.08 181.209 293.525 166.735C291.971 152.261 291.189 133.107 291.189 109.264ZM334.038 109.264C334.038 91.0996 333.937 76.3391 333.743 64.9905C333.55 53.6337 333.206 44.9852 332.727 39.0205C332.239 33.0639 331.559 28.9483 330.685 26.6737C329.811 24.4072 328.794 23.2699 327.626 23.2699C326.458 23.2699 325.483 24.4072 324.71 26.6737C323.928 28.9401 323.256 33.0557 322.668 39.0205C322.088 44.9771 321.693 53.6337 321.5 64.9905C321.307 76.3391 321.206 91.0996 321.206 109.264C321.206 127.428 321.298 142.189 321.5 153.537C321.693 164.894 322.08 173.543 322.668 179.507C323.248 185.464 323.928 189.579 324.71 191.854C325.483 194.121 326.458 195.258 327.626 195.258C328.794 195.258 329.811 194.121 330.685 191.854C331.559 189.579 332.239 185.472 332.727 179.507C333.214 173.551 333.55 164.894 333.743 153.537C333.937 142.189 334.038 127.428 334.038 109.264Z" fill="#393A2B"/>
<path d="M374.255 1.41553H398.743L403.112 15.0387V217.112H374.255V1.41553ZM398.743 118.919H389.995V96.2134H403.112C406.028 96.2134 408.406 95.4116 410.255 93.7997C412.104 92.196 413.507 88.8823 414.482 83.8666C415.448 78.8592 415.936 71.4298 415.936 61.5868C415.936 51.7437 415.448 43.807 414.482 38.8814C413.507 33.964 412.104 30.7484 410.255 29.2347C408.406 27.721 406.028 26.9683 403.112 26.9683H389.995V1.41553H398.743C409.818 1.41553 418.759 3.40378 425.557 7.3721C432.356 11.3486 437.313 17.7307 440.423 26.5264C443.532 35.3222 445.087 47.0062 445.087 61.5786C445.087 74.8254 443.481 85.094 440.28 92.376C437.07 99.6663 432.364 105.484 426.146 109.828H416.818V116.636C411.574 118.15 405.549 118.911 398.743 118.911V118.919ZM405.448 106.433H430.515L445.087 217.12H417.398L405.448 106.433Z" fill="#393A2B"/>
<path d="M454.414 217.12V1.41553H483.851V191.568H509.212V217.112H454.414V217.12Z" fill="#393A2B"/>
<path d="M527.867 1.41553H569.261L585.001 217.112H555.85L550.312 57.3239L547.102 8.50942H549.438L546.228 57.3239L540.11 217.112H512.128L527.867 1.41553ZM529.909 179.368V153.824H569.261V179.368H529.909Z" fill="#393A2B"/>
<path d="M596.648 217.12V183.066H629V217.12H596.648Z" fill="#393A2B"/>
</svg>
