<svg width="608" height="27" viewBox="0 0 608 27" fill="none" xmlns="http://www.w3.org/2000/svg">
<path d="M9.27719 0.597412C9.8234 0.597412 10.42 0.597403 11.0503 0.613767C11.6805 0.621949 12.3108 0.662864 12.9326 0.720139C13.5544 0.777414 14.1343 0.867423 14.6637 0.981972C15.2015 1.09652 15.6553 1.26833 16.0418 1.50561C16.8737 1.99654 17.588 2.66747 18.1678 3.5266C18.7561 4.38572 19.0418 5.44121 19.0418 6.69307C19.0418 8.01857 18.714 9.16407 18.0586 10.1214C17.4031 11.0869 16.4704 11.7987 15.2519 12.2651V12.3306C16.8233 12.6578 18.0334 13.3533 18.8653 14.417C19.6972 15.4888 20.1174 16.7816 20.1174 18.3199C20.1174 19.2281 19.9493 20.1117 19.6132 20.9709C19.2771 21.83 18.7813 22.5909 18.1258 23.2537C17.4704 23.9164 16.6552 24.4483 15.6889 24.8574C14.7225 25.2665 13.6049 25.471 12.3444 25.471H0V0.597412H9.26878H9.27719ZM10.2099 11.2914C12.1427 11.2914 13.5292 10.9641 14.378 10.3014C15.2267 9.63863 15.6469 8.64861 15.6469 7.32311C15.6469 6.43944 15.504 5.74395 15.2183 5.23665C14.9326 4.72936 14.5376 4.32846 14.0334 4.05026C13.5292 3.77207 12.9578 3.59206 12.3024 3.51024C11.6469 3.42842 10.9494 3.38751 10.2099 3.38751H3.41172V11.2914H10.2099ZM11.9242 22.6809C13.4284 22.6809 14.6048 22.2882 15.4452 21.4945C16.2939 20.709 16.7141 19.6126 16.7141 18.2217C16.7141 17.4116 16.5628 16.7325 16.2519 16.2007C15.941 15.6688 15.5292 15.2434 15.0166 14.9325C14.504 14.6215 13.9158 14.4006 13.2435 14.2697C12.5713 14.1388 11.8822 14.0815 11.1679 14.0815H3.40332V22.6891H11.9158L11.9242 22.6809Z" fill="#393A2B"/>
<path d="M39.1843 0.597412L49.1674 25.471H45.4111L42.6213 17.9844H31.8147L28.9492 25.471H25.4786L35.4197 0.597412H39.1759H39.1843ZM41.5457 15.1943L37.2852 3.59207H37.218L32.8903 15.1943H41.5457Z" fill="#393A2B"/>
<path d="M59.0412 0.597412V13.0015L71.9906 0.597412H76.3939L65.6294 10.6287L76.8309 25.471H72.5368L63.3101 12.8951L59.0496 16.7652V25.471H55.6547V0.597412H59.0496H59.0412Z" fill="#393A2B"/>
<path d="M101.108 0.597412V3.38751H86.8728V11.2914H100.142V14.0815H86.8728V22.6891H101.217V25.4792H83.4695V0.605577H101.108V0.597412Z" fill="#393A2B"/>
<path d="M121.326 0.597191C123.763 0.597191 125.662 1.1781 127.032 2.33996C128.402 3.50182 129.091 5.08916 129.091 7.11014C129.091 8.62383 128.738 9.94116 128.032 11.0785C127.326 12.2158 126.2 12.9931 124.654 13.4104V13.4758C125.393 13.6149 125.998 13.844 126.46 14.1713C126.923 14.4986 127.292 14.8831 127.57 15.3413C127.847 15.7914 128.049 16.2987 128.175 16.855C128.309 17.4114 128.41 17.9924 128.477 18.5978C128.528 19.2033 128.561 19.8169 128.587 20.447C128.612 21.077 128.671 21.6907 128.763 22.2961C128.855 22.9016 128.998 23.4743 129.175 24.0226C129.351 24.5708 129.62 25.0535 129.981 25.4708H126.192C125.956 25.2172 125.788 24.8653 125.713 24.4235C125.629 23.9817 125.578 23.4907 125.553 22.9425C125.528 22.3943 125.503 21.8134 125.477 21.1834C125.452 20.5534 125.385 19.9397 125.267 19.3342C125.175 18.7287 125.049 18.156 124.906 17.6078C124.763 17.0596 124.536 16.585 124.225 16.1759C123.914 15.7668 123.511 15.4477 123.007 15.2022C122.503 14.9568 121.839 14.8341 121.007 14.8341H112.704V25.4544H109.309V0.580811H121.326V0.597191ZM122.04 11.8803C122.755 11.7658 123.385 11.5367 123.923 11.2012C124.461 10.8657 124.889 10.4157 125.208 9.84297C125.528 9.2784 125.696 8.53382 125.696 7.63379C125.696 6.38192 125.334 5.35916 124.62 4.56549C123.906 3.77183 122.746 3.3791 121.15 3.3791H112.704V12.0521H119.788C120.578 12.0521 121.326 11.9949 122.04 11.8803Z" fill="#393A2B"/>
<path d="M147.006 25.471H143.612V15.3007L133.738 0.597412H137.78L145.435 12.4369L152.914 0.597412H156.779L147.015 15.3007V25.471H147.006Z" fill="#393A2B"/>
<path d="M187.989 24.98C186.661 25.5609 185.3 25.8473 183.888 25.8473C182.174 25.8473 180.787 25.5936 179.737 25.0782C178.687 24.5627 177.88 23.949 177.309 23.229C176.737 22.509 176.359 21.7644 176.183 21.0035C176.006 20.2344 175.914 19.5961 175.914 19.0889C175.914 18.1152 176.073 17.2561 176.401 16.5115C176.72 15.7669 177.149 15.1042 177.687 14.5069C178.224 13.9096 178.855 13.3777 179.586 12.9032C180.317 12.4286 181.082 11.9786 181.897 11.5613C181.535 11.0704 181.191 10.6122 180.855 10.1704C180.519 9.72852 180.216 9.2867 179.947 8.8285C179.67 8.37849 179.46 7.90392 179.3 7.39663C179.14 6.88934 179.065 6.33295 179.065 5.70293C179.065 5.032 179.191 4.3856 179.443 3.77194C179.695 3.15828 180.065 2.61008 180.552 2.13552C181.04 1.66095 181.645 1.2846 182.359 1.00641C183.073 0.728215 183.897 0.589111 184.829 0.589111C185.619 0.589111 186.384 0.695483 187.14 0.900036C187.888 1.11277 188.552 1.43186 189.124 1.85733C189.695 2.29098 190.157 2.82284 190.502 3.46104C190.846 4.09924 191.023 4.83562 191.023 5.67019C191.023 6.41477 190.888 7.10206 190.628 7.74027C190.367 8.37847 190.006 8.96758 189.552 9.49942C189.098 10.0313 188.586 10.514 188.014 10.9477C187.443 11.3813 186.846 11.7659 186.224 12.1177L190.838 17.5833C191.317 16.2824 191.586 14.9978 191.661 13.7132H194.56C194.493 14.4578 194.409 15.0878 194.325 15.6115C194.241 16.1351 194.132 16.6179 194.006 17.0597C193.871 17.5015 193.712 17.9352 193.527 18.3688C193.334 18.8025 193.107 19.2934 192.846 19.8498L197.821 25.4545H193.846L191.123 22.3535C190.359 23.5154 189.317 24.3827 187.997 24.9636L187.989 24.98ZM181.872 14.4578C181.334 14.8096 180.863 15.2024 180.46 15.6442C180.056 16.086 179.729 16.5769 179.493 17.1251C179.258 17.6733 179.132 18.3116 179.132 19.0561C179.132 19.6862 179.266 20.2589 179.544 20.7826C179.821 21.3062 180.182 21.748 180.636 22.108C181.09 22.4681 181.611 22.7544 182.191 22.959C182.771 23.1635 183.376 23.2699 183.998 23.2699C185.166 23.2699 186.208 22.9999 187.124 22.4681C188.039 21.9362 188.813 21.2162 189.434 20.308L183.569 13.4432C182.972 13.7705 182.409 14.106 181.872 14.4496V14.4578ZM185.72 9.40942C186.124 9.13123 186.493 8.82032 186.829 8.46849C187.166 8.11666 187.434 7.7321 187.653 7.29845C187.871 6.87298 187.972 6.39022 187.972 5.8502C187.972 5.13018 187.712 4.50834 187.182 3.98468C186.661 3.46103 185.939 3.19921 185.04 3.19921C184.325 3.19921 183.653 3.41195 183.04 3.8456C182.418 4.27925 182.107 4.94199 182.107 5.8502C182.107 6.2184 182.182 6.59479 182.342 6.96298C182.493 7.33118 182.695 7.69937 182.93 8.05938C183.166 8.41939 183.435 8.77121 183.72 9.12305C184.006 9.47488 184.292 9.81852 184.577 10.1704C184.939 9.94126 185.317 9.67943 185.72 9.40123V9.40942Z" fill="#393A2B"/>
<path d="M230.736 3.99274C229.602 3.1909 228.157 2.78997 226.392 2.78997C225.678 2.78997 224.972 2.85544 224.283 3.00271C223.594 3.14181 222.98 3.37089 222.442 3.69817C221.905 4.02546 221.476 4.45911 221.157 5.00732C220.837 5.55552 220.669 6.23462 220.669 7.04465C220.669 7.81377 220.905 8.43564 221.367 8.9102C221.829 9.38476 222.451 9.7775 223.224 10.0802C223.997 10.383 224.879 10.6284 225.854 10.833C226.829 11.0293 227.829 11.2421 228.837 11.4794C229.854 11.7085 230.846 11.9867 231.82 12.2976C232.795 12.6085 233.678 13.034 234.451 13.5658C235.224 14.0976 235.846 14.7767 236.308 15.5868C236.77 16.3968 237.005 17.4196 237.005 18.6551C237.005 19.9806 236.703 21.1097 236.089 22.0507C235.476 22.9916 234.703 23.7607 233.745 24.3498C232.787 24.9389 231.72 25.3726 230.543 25.6426C229.367 25.9126 228.19 26.0435 227.022 26.0435C225.594 26.0435 224.241 25.8717 222.963 25.5199C221.686 25.168 220.569 24.6444 219.602 23.9325C218.636 23.2207 217.871 22.3207 217.316 21.2161C216.753 20.1115 216.476 18.8106 216.476 17.2969H219.695C219.695 18.3442 219.905 19.2442 220.325 19.9969C220.745 20.7497 221.291 21.3715 221.972 21.8625C222.653 22.3534 223.442 22.7134 224.35 22.9425C225.258 23.1716 226.182 23.2943 227.14 23.2943C227.905 23.2943 228.669 23.2207 229.451 23.0816C230.224 22.9425 230.921 22.7052 231.543 22.3698C232.165 22.0343 232.661 21.5761 233.047 20.9952C233.425 20.4142 233.619 19.6697 233.619 18.7696C233.619 17.9105 233.383 17.215 232.921 16.6832C232.459 16.1514 231.837 15.7177 231.064 15.3741C230.291 15.0386 229.417 14.7604 228.434 14.5559C227.459 14.3431 226.459 14.1304 225.451 13.9095C224.434 13.6885 223.442 13.4349 222.468 13.1403C221.493 12.854 220.611 12.4694 219.837 11.9948C219.064 11.5203 218.442 10.9066 217.98 10.1457C217.518 9.39293 217.283 8.4438 217.283 7.30649C217.283 6.05462 217.543 4.96642 218.073 4.05002C218.594 3.13363 219.291 2.38086 220.165 1.78356C221.039 1.19445 222.022 0.752621 223.131 0.458065C224.241 0.171691 225.375 0.0244141 226.552 0.0244141C227.863 0.0244141 229.081 0.171682 230.199 0.47442C231.316 0.777158 232.299 1.25172 233.148 1.90629C233.997 2.55268 234.661 3.37907 235.148 4.36092C235.636 5.35096 235.904 6.52919 235.955 7.8956H232.736C232.543 6.10372 231.879 4.81094 230.753 4.0091L230.736 3.99274Z" fill="#393A2B"/>
<path d="M256.299 0.597301C258.879 0.597301 260.828 1.24368 262.148 2.52827C263.467 3.81286 264.131 5.6211 264.131 7.94482C264.131 10.2685 263.467 12.0768 262.148 13.3778C260.82 14.6787 258.871 15.3169 256.299 15.2924H248.501V25.4627H245.106V0.589111H256.308L256.299 0.597301ZM255.156 12.5105C257.089 12.535 258.501 12.1504 259.392 11.365C260.282 10.5795 260.736 9.43397 260.736 7.95301C260.736 6.47205 260.291 5.33474 259.392 4.55744C258.501 3.78014 257.081 3.3874 255.156 3.3874H248.501V12.5105H255.156Z" fill="#393A2B"/>
<path d="M289.895 0.597412V3.38751H275.66V11.2914H288.929V14.0815H275.66V22.6891H290.005V25.4792H272.257V0.605577H289.895V0.597412Z" fill="#393A2B"/>
<path d="M313.525 4.1156C312.223 3.23193 310.685 2.7901 308.895 2.7901C307.366 2.7901 306.063 3.06829 304.979 3.62467C303.895 4.18105 302.996 4.93381 302.298 5.87475C301.593 6.81569 301.072 7.88755 300.744 9.0985C300.408 10.3095 300.24 11.5613 300.24 12.8623C300.24 14.2778 300.408 15.6197 300.744 16.8879C301.08 18.1561 301.593 19.2607 302.298 20.1934C303.004 21.1344 303.903 21.879 304.996 22.4435C306.088 23.0081 307.408 23.2781 308.929 23.2781C310.046 23.2781 311.046 23.0981 311.912 22.7381C312.786 22.3781 313.534 21.879 314.164 21.2408C314.794 20.6025 315.29 19.8416 315.651 18.958C316.013 18.0743 316.223 17.1252 316.298 16.1024H319.693C319.357 19.2361 318.248 21.6744 316.365 23.4172C314.483 25.16 311.903 26.0273 308.634 26.0273C306.651 26.0273 304.929 25.7 303.45 25.0373C301.971 24.3745 300.744 23.4663 299.761 22.3044C298.786 21.1426 298.046 19.7762 297.559 18.197C297.072 16.6179 296.828 14.9242 296.828 13.1077C296.828 11.2913 297.088 9.59761 297.618 8.0021C298.139 6.41477 298.912 5.02382 299.929 3.83741C300.946 2.65101 302.206 1.71825 303.719 1.03095C305.231 0.343657 306.971 0 308.92 0C310.256 0 311.517 0.171836 312.71 0.523667C313.903 0.875498 314.962 1.38278 315.895 2.05372C316.828 2.72465 317.601 3.5674 318.223 4.58199C318.844 5.59657 319.248 6.75843 319.441 8.08393H316.046C315.668 6.31659 314.819 4.99927 313.525 4.1156Z" fill="#393A2B"/>
<path d="M331.424 0.597412V25.471H328.029V0.597412H331.424Z" fill="#393A2B"/>
<path d="M351.819 0.597412L361.802 25.471H358.046L355.256 17.9844H344.449L341.584 25.471H338.113L348.054 0.597412H351.81H351.819ZM354.18 15.1943L349.92 3.59207H349.852L345.525 15.1943H354.18Z" fill="#393A2B"/>
<path d="M371.676 0.597412V22.6809H385.197V25.471H368.272V0.597412H371.667H371.676Z" fill="#393A2B"/>
<path d="M386.129 3.38751V0.597412H406.558V3.38751H398.045V25.471H394.65V3.38751H386.138H386.129Z" fill="#393A2B"/>
<path d="M423.902 25.471H420.507V15.3007L410.633 0.597412H414.675L422.33 12.4369L429.809 0.597412H433.675L423.91 15.3007V25.471H423.902Z" fill="#393A2B"/>
<path d="M469.859 4.1156C468.557 3.23193 467.019 2.7901 465.229 2.7901C463.7 2.7901 462.397 3.06829 461.313 3.62467C460.229 4.18105 459.33 4.93381 458.632 5.87475C457.927 6.81569 457.406 7.88755 457.078 9.0985C456.742 10.3095 456.574 11.5613 456.574 12.8623C456.574 14.2778 456.742 15.6197 457.078 16.8879C457.414 18.1561 457.927 19.2607 458.632 20.1934C459.338 21.1344 460.237 21.879 461.33 22.4435C462.422 23.0081 463.742 23.2781 465.263 23.2781C466.38 23.2781 467.38 23.0981 468.246 22.7381C469.12 22.3781 469.868 21.879 470.498 21.2408C471.128 20.6025 471.624 19.8416 471.985 18.958C472.347 18.0743 472.557 17.1252 472.632 16.1024H476.027C475.691 19.2361 474.582 21.6744 472.699 23.4172C470.817 25.16 468.237 26.0273 464.969 26.0273C462.985 26.0273 461.263 25.7 459.784 25.0373C458.305 24.3745 457.078 23.4663 456.095 22.3044C455.12 21.1426 454.38 19.7762 453.893 18.197C453.406 16.6179 453.162 14.9242 453.162 13.1077C453.162 11.2913 453.422 9.59761 453.952 8.0021C454.473 6.41477 455.246 5.02382 456.263 3.83741C457.28 2.65101 458.54 1.71825 460.053 1.03095C461.565 0.343657 463.305 0 465.254 0C466.59 0 467.851 0.171836 469.044 0.523667C470.237 0.875498 471.296 1.38278 472.229 2.05372C473.162 2.72465 473.935 3.5674 474.557 4.58199C475.178 5.59657 475.582 6.75843 475.775 8.08393H472.38C472.002 6.31659 471.153 4.99927 469.859 4.1156Z" fill="#393A2B"/>
<path d="M483.557 8.14132C484.069 6.57036 484.842 5.18756 485.867 3.9766C486.893 2.76565 488.17 1.80835 489.699 1.08832C491.229 0.368295 493.002 0.00830078 495.027 0.00830078C497.052 0.00830078 498.834 0.368295 500.355 1.08832C501.884 1.80835 503.153 2.77383 504.186 3.9766C505.212 5.18756 505.976 6.57036 506.497 8.14132C507.018 9.71229 507.27 11.3405 507.27 13.0342C507.27 14.7279 507.018 16.3643 506.497 17.9271C505.976 19.4899 505.212 20.8809 504.186 22.0918C503.161 23.3028 501.884 24.2601 500.355 24.9637C498.825 25.6756 497.052 26.0274 495.027 26.0274C493.002 26.0274 491.22 25.6756 489.699 24.9637C488.17 24.2519 486.893 23.2946 485.867 22.0918C484.842 20.8809 484.069 19.4981 483.557 17.9271C483.044 16.3562 482.783 14.7279 482.783 13.0342C482.783 11.3405 483.036 9.7041 483.557 8.14132ZM486.691 16.7407C487.027 17.9598 487.548 19.0563 488.262 20.0299C488.977 21.0036 489.893 21.7891 491.019 22.3782C492.136 22.9673 493.472 23.27 495.027 23.27C496.582 23.27 497.909 22.9755 499.035 22.3782C500.161 21.7809 501.077 21.0036 501.792 20.0299C502.506 19.0563 503.035 17.9598 503.363 16.7407C503.699 15.5216 503.867 14.2861 503.867 13.0342C503.867 11.7823 503.699 10.5468 503.363 9.32771C503.027 8.10858 502.506 7.01218 501.792 6.03851C501.077 5.06484 500.161 4.27936 499.035 3.69025C497.909 3.10114 496.582 2.7984 495.027 2.7984C493.472 2.7984 492.145 3.09296 491.019 3.69025C489.901 4.27936 488.977 5.06484 488.262 6.03851C487.548 7.01218 487.019 8.10858 486.691 9.32771C486.355 10.5468 486.187 11.7823 486.187 13.0342C486.187 14.2861 486.355 15.5216 486.691 16.7407Z" fill="#393A2B"/>
<path d="M532.161 0.597412V3.38751H518.783V11.2914H530.514V14.0815H518.783V25.471H515.388V0.597412H532.169H532.161Z" fill="#393A2B"/>
<path d="M556.665 0.597412V3.38751H543.287V11.2914H555.018V14.0815H543.287V25.471H539.892V0.597412H556.673H556.665Z" fill="#393A2B"/>
<path d="M582.026 0.597412V3.38751H567.791V11.2914H581.059V14.0815H567.791V22.6891H582.135V25.4792H564.387V0.605577H582.026V0.597412Z" fill="#393A2B"/>
<path d="M607.857 0.597412V3.38751H593.622V11.2914H606.891V14.0815H593.622V22.6891H607.967V25.4792H590.219V0.605577H607.857V0.597412Z" fill="#393A2B"/>
</svg>
